<svg xmlns="http://www.w3.org/2000/svg" viewBox="0 0 1200 628"><defs><style>.cls-1{fill:#eb996e}.cls-2{fill:#fff}.cls-3{fill:#fafafa}.cls-4{fill:#ffbe9d}.cls-6{fill:#97d1fd}.cls-8{fill:#c1e3fe}.cls-9{fill:#cde9fe}.cls-10{fill:#e0e0e0}.cls-11{fill:#daeefe}.cls-12{fill:#455a64}.cls-13{fill:#263238}.cls-14{fill:#38436e}.cls-15{fill:#5da0e0}.cls-17{opacity:.2}.cls-18{opacity:.3}.cls-19{opacity:.6}</style></defs><g id="Background_Complete"><path d="M-18-8.5h1236v646.84H-18z" class="cls-2"/><path d="M-18-8.5h1236v646.84H-18z" style="opacity:.25;fill:#97d1fd"/><path d="M925.5 71.96h70.05v73.02H925.5z" class="cls-8"/><path d="M920.75 71.96h70.05v73.02h-70.05z" class="cls-3"/><path d="M990.83 145h-70.09V71.94h70.09v73.07Zm-70.05-.04h70.01V71.98h-70.01v72.98Z" class="cls-10"/><path d="M930.17 81.77h51.22v53.39h-51.22z" class="cls-3"/><path d="M930.17 135.52s-.45.61-1.26 1.47c-.82.86-1.97 2.03-3.26 3.3-1.29 1.27-2.47 2.4-3.35 3.2-.87.8-1.44 1.28-1.48 1.23-.04-.04.44-.6 1.26-1.46.82-.86 1.97-2.03 3.26-3.31 1.29-1.27 2.48-2.41 3.35-3.21.87-.8 1.43-1.27 1.47-1.23ZM981.39 135.39s.61.45 1.47 1.26c.86.82 2.03 1.97 3.3 3.26 1.27 1.29 2.4 2.47 3.2 3.35.8.87 1.28 1.44 1.23 1.48-.04.04-.6-.44-1.46-1.26-.86-.82-2.03-1.97-3.31-3.26-1.27-1.29-2.41-2.48-3.21-3.35-.8-.87-1.27-1.43-1.23-1.47ZM981.25 81.92s.45-.61 1.26-1.47 1.97-2.03 3.26-3.3c1.29-1.27 2.47-2.4 3.35-3.2.87-.8 1.44-1.28 1.48-1.23.04.04-.44.6-1.26 1.46-.82.86-1.97 2.03-3.26 3.31-1.29 1.27-2.48 2.41-3.35 3.21s-1.43 1.27-1.47 1.23ZM930.03 82.05s-.61-.45-1.47-1.26c-.86-.82-2.03-1.97-3.3-3.26-1.27-1.29-2.4-2.47-3.2-3.35-.8-.87-1.28-1.44-1.23-1.48.04-.04.6.44 1.46 1.26.86.82 2.03 1.97 3.31 3.26 1.27 1.29 2.41 2.48 3.21 3.35.8.87 1.27 1.43 1.23 1.47Z" class="cls-8"/><path d="M981.25 135.16s0-.09-.01-.26c0-.18 0-.43-.01-.74 0-.67-.01-1.63-.02-2.88-.01-2.53-.03-6.21-.05-10.88-.02-9.35-.06-22.67-.1-38.62l.2.2c-14.91 0-32.42.02-51.07.03l.23-.23c-.01 19.6-.02 37.93-.03 53.39l-.19-.19c15.31.04 28.05.08 36.98.1 4.46.02 7.98.04 10.39.05 1.19 0 2.11.02 2.75.02.3 0 .54 0 .71.01.16 0 .24 0 .25.01 0 0-.07 0-.23.01-.17 0-.4 0-.69.01-.63 0-1.54.01-2.71.02-2.4.01-5.9.03-10.34.05-8.96.02-21.75.06-37.11.1h-.19v-.19c0-15.46-.02-33.79-.03-53.39v-.23h.23c18.65.01 36.16.02 51.07.03h.2v.2c-.04 16-.08 29.37-.1 38.75-.02 4.65-.04 8.32-.05 10.84-.01 1.23-.02 2.18-.02 2.84 0 .31 0 .55-.01.72 0 .16 0 .24-.01.24ZM1013.09 278.19s-10.4-.75-9.44 22.59c.96 23.33 3.34 35.76 3.34 35.76s-.31 5.17-4.31 4.16c-4.01-1.02-11.54-6.05-15.27-2.29-3.86 3.9-2.49 9.89 2.63 16.94 5.12 7.05 15.77 22.91 16.73 24.35.94 1.41 1.32 4.06-1.52 3.8-2.84-.25-22.01-6.75-24.55 2.53-2.54 9.28 14.96 26.58 16.83 28.51 1.88 1.93 1.98 3.15 1.22 4.31-.76 1.17-7-1.63-12.53-3.25-5.53-1.62-12.22-2.54-13.24 2.94-1.02 5.48 6.69 21.51 35.55 38.36l13.88 6.93 13.14-8.38c27.03-19.65 33.09-36.37 31.53-41.72-1.56-5.35-8.13-3.77-13.47-1.6s-11.27 5.57-12.14 4.49c-.87-1.08-.9-2.31.78-4.41 1.67-2.11 17.35-21.07 13.9-30.05-3.45-8.98-21.88-.6-24.68-.06-2.8.54-2.69-2.13-1.9-3.63.81-1.53 9.82-18.38 14.21-25.9 4.39-7.53 5.16-13.62.93-17.12-4.08-3.37-11.08 2.39-14.96 3.8-3.89 1.41-4.71-3.71-4.71-3.71s1.13-12.6-.26-35.92c-1.38-23.31-11.91-21.43-11.91-21.43" class="cls-8"/><path d="M1013.92 299.09s.03.16.06.49c.03.35.06.82.11 1.43.09 1.28.21 3.14.37 5.51.32 4.79.73 11.71 1.2 20.28.95 17.12 2.06 40.79 3.21 66.93 1.14 26.15 2.2 49.82 3.05 66.95.43 8.55.79 15.47 1.03 20.28.12 2.38.21 4.23.27 5.52.02.61.04 1.09.06 1.43.01.32 0 .49 0 .49s-.03-.16-.06-.49c-.03-.35-.06-.82-.11-1.43-.09-1.28-.21-3.14-.37-5.51-.32-4.79-.73-11.71-1.2-20.28-.95-17.12-2.06-40.79-3.21-66.95-1.14-26.14-2.19-49.81-3.05-66.94-.43-8.55-.79-15.47-1.03-20.28-.12-2.38-.21-4.23-.27-5.52-.02-.61-.04-1.09-.06-1.44-.01-.32 0-.49 0-.49Z" class="cls-2"/><path d="M997.67 345.87s.33.23.86.72c.53.48 1.28 1.21 2.2 2.12 1.83 1.81 4.3 4.39 6.96 7.28 2.61 2.85 4.97 5.43 6.79 7.43.81.88 1.5 1.63 2.07 2.24.49.53.75.83.72.86-.03.03-.33-.23-.87-.71-.53-.49-1.28-1.21-2.19-2.13-1.81-1.83-4.24-4.44-6.91-7.33-2.63-2.83-5-5.4-6.84-7.38l-2.08-2.23c-.49-.53-.74-.84-.72-.86ZM1018.65 366.06c-.1-.1 4.97-5.42 11.34-11.87 6.37-6.46 11.61-11.61 11.72-11.5.1.1-4.97 5.42-11.34 11.88-6.37 6.45-11.61 11.6-11.72 11.5ZM1018.6 406.29s.33-.25.97-.62c.74-.42 1.65-.93 2.72-1.52 2.29-1.29 5.45-3.08 8.86-5.18 3.42-2.09 6.45-4.09 8.63-5.55 1.02-.68 1.88-1.26 2.59-1.73.61-.4.97-.61.99-.58.02.03-.29.3-.87.75-.58.46-1.43 1.1-2.5 1.87-2.13 1.54-5.14 3.6-8.57 5.7-3.42 2.11-6.62 3.85-8.96 5.05-1.17.6-2.13 1.07-2.8 1.38-.67.31-1.05.46-1.06.43ZM995.6 392.21s.36.13.96.45 1.46.8 2.52 1.4c2.11 1.2 5.01 2.89 8.2 4.79 3.19 1.9 6.06 3.64 8.12 4.92 1.03.64 1.86 1.17 2.43 1.54.57.37.87.6.85.63-.02.03-.36-.13-.96-.45s-1.46-.8-2.52-1.4c-2.11-1.2-5.01-2.89-8.2-4.79-3.19-1.9-6.06-3.64-8.12-4.92-1.03-.64-1.86-1.17-2.43-1.54-.57-.37-.87-.6-.85-.63ZM991.03 427.72s.45.18 1.22.59c.86.47 1.94 1.07 3.23 1.78 2.72 1.53 6.45 3.66 10.56 6.05 4.11 2.39 7.81 4.58 10.48 6.19 1.26.77 2.31 1.42 3.15 1.93.74.47 1.14.74 1.12.77-.02.03-.45-.18-1.22-.59-.86-.47-1.94-1.07-3.23-1.78-2.72-1.53-6.45-3.66-10.56-6.05-4.11-2.39-7.81-4.58-10.48-6.19-1.26-.77-2.31-1.42-3.15-1.93-.74-.47-1.14-.74-1.12-.77ZM1020.2 444.42s.41-.32 1.21-.81c.88-.54 2.02-1.23 3.37-2.05 2.85-1.74 6.77-4.15 11.03-6.92 4.27-2.77 8.06-5.38 10.8-7.29 1.31-.91 2.4-1.66 3.24-2.25.77-.53 1.21-.81 1.23-.78.02.03-.37.36-1.1.94-.73.58-1.8 1.4-3.15 2.39-2.68 1.99-6.45 4.65-10.73 7.43a224.54 224.54 0 0 1-11.13 6.8c-1.45.82-2.63 1.48-3.46 1.91-.83.44-1.29.66-1.31.63Z" class="cls-2"/><path d="M1041.06 468.38h-38.41l12.54 94.89h13.34l12.53-94.89z" class="cls-13"/><path d="M1004.65 480.04s.04.13.21.34c.16.2.46.46.93.66.91.4 2.51.43 4.06-.5 1.55-.86 2.9-2.54 4.98-3.28 2.06-.79 4.61-.65 7.06.14 2.48.77 4.63 2.02 6.58 3.19 1.95 1.16 3.74 2.2 5.35 2.87 1.59.7 2.98 1.02 3.94 1.14.48.06.86.08 1.11.08.26 0 .39-.01.39-.03.02-.13-2.17-.11-5.27-1.59-1.55-.71-3.29-1.77-5.23-2.96-1.93-1.19-4.13-2.5-6.69-3.29-2.53-.81-5.24-.96-7.45-.08-1.1.42-2.03 1.08-2.81 1.74-.78.65-1.49 1.26-2.2 1.7-1.4.91-2.88.95-3.74.65-.88-.31-1.17-.83-1.22-.77ZM1006.05 497.52c.05.03.3-.39.9-1.02.61-.61 1.61-1.41 3.07-1.95 1.44-.55 3.29-.88 5.34-.8 2.06.07 4.3.52 6.68.91 2.38.4 4.74.58 6.84.28 2.11-.27 3.93-.88 5.38-1.54 1.45-.66 2.53-1.39 3.24-1.93.71-.54 1.05-.9 1.03-.92-.07-.1-1.56 1.22-4.44 2.44-1.44.59-3.23 1.14-5.28 1.37-2.05.25-4.31.07-6.68-.33-2.36-.38-4.64-.83-6.77-.87-2.13-.05-4.04.34-5.52.97-1.5.62-2.51 1.51-3.08 2.19-.28.35-.48.64-.58.85-.11.21-.16.32-.14.33ZM1036.71 506.88s-.34-.27-1.06-.55-1.81-.57-3.18-.68c-1.38-.11-3.02-.02-4.81.28-1.79.29-3.71.78-5.73 1.21-2.01.42-3.96.71-5.72.65-1.76-.06-3.33-.45-4.54-.98-2.47-1.08-3.35-2.66-3.44-2.56-.02.01.15.41.65 1 .49.59 1.36 1.35 2.61 1.96 1.25.61 2.87 1.06 4.7 1.16 1.84.1 3.84-.18 5.87-.61 2.04-.43 3.94-.94 5.7-1.26 1.75-.32 3.35-.45 4.69-.4 2.7.09 4.23.9 4.27.79ZM1009.44 520.04c.02.1 1.37-.85 3.73-.38 1.16.21 2.45.79 3.9 1.45 1.45.67 3.19 1.25 5.06 1.4 3.77.36 7.13-.86 9.19-2.13 1.05-.63 1.79-1.3 2.29-1.76.47-.5.71-.78.68-.81-.08-.09-1.09 1.04-3.19 2.19-2.06 1.14-5.3 2.24-8.91 1.89-3.64-.21-6.43-2.38-8.95-2.66-1.23-.18-2.26 0-2.9.25-.65.25-.92.54-.9.56ZM1011.58 538.25c0 .07 1.29.06 3.2-.64 1.93-.64 4.32-2.13 7.11-3.23 1.4-.53 2.8-.86 4.08-.85 1.28 0 2.42.32 3.28.75 1.76.88 2.28 2.13 2.37 2.05.03-.01-.05-.33-.36-.81-.31-.48-.9-1.11-1.8-1.63-.9-.51-2.11-.9-3.48-.94-1.38-.04-2.86.29-4.31.85-2.89 1.15-5.21 2.68-7.05 3.41-1.82.79-3.06.95-3.04 1.05ZM1013.46 546.73c-.02.08.9.41 2.43.79 1.53.38 3.68.79 6.08 1.02 2.4.23 4.59.25 6.16.18 1.58-.07 2.54-.22 2.54-.3 0-.19-3.89-.02-8.64-.5-4.75-.46-8.53-1.37-8.57-1.19Z" class="cls-15"/><path d="m350.056 107.474 9.93-.054.268 49.41-9.93.053z" class="cls-8"/><path d="m264.029 107.69 25.71-.14.147 27.28-25.71.14z" class="cls-9"/><path d="m289.627 107.551 25.71-.139.148 27.28-25.71.139z" class="cls-2"/><path d="M264.07 115.24c17.09.14 34.22.04 51.3-.24.35 0 .35-.54 0-.55-17.09-.09-34.22-.01-51.3.31-.3 0-.3.47 0 .47Z" class="cls-8"/><path d="m248.004 134.636 46.72-.253.12 22.23-46.72.253z" class="cls-9"/><path d="m294.502 134.374 46.72-.252.12 22.23-46.72.252z" class="cls-2"/><path d="M248.03 140.82c31.03.35 62.18.04 93.21-.46.35 0 .35-.54 0-.55-31.04-.16-62.18-.15-93.21.54-.3 0-.3.47 0 .47ZM230.56 156.87h180.99v7.96H230.56z" class="cls-8"/><path d="M260.19 160.7h7.35v27.17h-7.35zM369.87 160.7h7.35v27.17h-7.35z" class="cls-8"/><path d="m359.747 89.051 9.93-.053.367 67.949-9.93.053z" class="cls-11"/><path d="m369.755 101.737 15.43-.083.298 55.069-15.43.083z" class="cls-9"/><path d="M385.08 112.28c0 .15-3.45.27-7.71.27s-7.71-.12-7.71-.27 3.45-.27 7.71-.27 7.71.12 7.71.27ZM385.08 109.96c0 .15-3.45.27-7.71.27s-7.71-.12-7.71-.27 3.45-.27 7.71-.27 7.71.12 7.71.27ZM385.08 148.45c0 .15-3.45.27-7.71.27s-7.71-.12-7.71-.27 3.45-.27 7.71-.27 7.71.12 7.71.27ZM385.08 146.14c0 .15-3.45.27-7.71.27s-7.71-.12-7.71-.27 3.45-.27 7.71-.27 7.71.12 7.71.27ZM377.61 141.09c-.15 0-.27-5.56-.27-12.41s.12-12.41.27-12.41.27 5.55.27 12.41-.12 12.41-.27 12.41Z" class="cls-8"/><path d="M385.24 115.19h16.79v41.56h-16.79z" class="cls-11"/><circle cx="364.56" cy="100.62" r="2.85" class="cls-8"/><path d="M363.67 108.47h1.76v40.42h-1.76zM237.18 233.67h70.05v73.02h-70.05z" class="cls-8"/><path d="M232.43 233.67h70.05v73.02h-70.05z" class="cls-3"/><path d="M302.5 306.72h-70.09v-73.07h70.09v73.07Zm-70.05-.04h70.01V233.7h-70.01v72.98Z" class="cls-10"/><path d="M241.85 243.49h51.22v53.39h-51.22z" class="cls-3"/><path d="M241.85 297.23s-.45.61-1.26 1.47c-.82.86-1.97 2.03-3.26 3.3-1.29 1.27-2.47 2.4-3.35 3.2-.87.8-1.44 1.28-1.48 1.23s.44-.6 1.26-1.46c.82-.86 1.97-2.03 3.26-3.31 1.29-1.27 2.48-2.41 3.35-3.21s1.43-1.27 1.47-1.23ZM293.07 297.1s.61.45 1.47 1.26c.86.82 2.03 1.97 3.3 3.26 1.27 1.29 2.4 2.47 3.2 3.35.8.87 1.28 1.44 1.23 1.48-.04.04-.6-.44-1.46-1.26-.86-.82-2.03-1.97-3.31-3.26-1.27-1.29-2.41-2.48-3.21-3.35-.8-.87-1.27-1.43-1.23-1.47ZM292.93 243.63s.45-.61 1.26-1.47c.82-.86 1.97-2.03 3.26-3.3 1.29-1.27 2.47-2.4 3.35-3.2s1.44-1.28 1.48-1.23c.04.04-.44.6-1.26 1.46s-1.97 2.03-3.26 3.31c-1.29 1.27-2.48 2.41-3.35 3.21-.87.8-1.43 1.27-1.47 1.23ZM241.71 243.76s-.61-.45-1.47-1.26c-.86-.82-2.03-1.97-3.3-3.26-1.27-1.29-2.4-2.47-3.2-3.35-.8-.87-1.28-1.44-1.23-1.48.04-.04.6.44 1.46 1.26.86.82 2.03 1.97 3.31 3.26 1.27 1.29 2.41 2.48 3.21 3.35s1.27 1.43 1.23 1.47Z" class="cls-10"/><path d="M292.93 296.88s0-.09-.01-.26c0-.18 0-.43-.01-.74 0-.67-.01-1.63-.02-2.88-.01-2.53-.03-6.21-.05-10.88-.02-9.35-.06-22.67-.1-38.62l.2.2c-14.91 0-32.42.02-51.07.03l.23-.23c-.01 19.6-.02 37.93-.03 53.39l-.19-.19c15.31.04 28.05.08 36.98.1 4.46.02 7.98.04 10.39.05 1.19 0 2.11.02 2.75.02.3 0 .54 0 .71.01.16 0 .24 0 .25.01 0 0-.07 0-.23.01-.17 0-.4 0-.69.01-.63 0-1.54.01-2.71.02-2.4.01-5.9.03-10.34.05-8.96.02-21.75.06-37.11.1h-.19v-.19c0-15.46-.02-33.79-.03-53.39v-.23h.23c18.65.01 36.16.02 51.07.03h.2v.2c-.04 16-.08 29.37-.1 38.75-.02 4.65-.04 8.32-.05 10.84-.01 1.23-.02 2.18-.02 2.84 0 .31 0 .55-.01.72 0 .16 0 .24-.01.24Z" class="cls-10"/><path d="M637.92 140.11h37.55v80.38h-37.55zM677.03 226.11h46.14v77.67h-46.14zM728.79 138.72h43.81V67.41h1.56v71.31h40.56V65.83h-85.93v72.89zM637.92 226.11h37.55v77.67h-37.55zM774.16 226.11h40.55v77.67h-40.55zM677.03 140.11h46.14v80.38h-46.14zM774.16 140.11h40.55v80.38h-40.55zM637.92 305.17h37.55v69.99h-37.55zM675.47 138.72V67.41h1.56v71.31h46.14V65.83h-85.25v72.89h37.55zM677.03 305.17h46.14v69.99h-46.14zM774.16 305.17h40.55v69.99h-40.55zM728.79 140.11h43.82v80.38h-43.82zM728.79 305.17h43.82v69.99h-43.82zM728.79 226.11h43.82v77.67h-43.82zM454.9 140.11h37.55v80.38H454.9zM494.01 226.11h46.14v77.67h-46.14zM545.77 138.72h43.82V67.41h1.56v71.31h40.55V65.83h-85.93v72.89zM454.9 226.11h37.55v77.67H454.9zM591.15 226.11h40.55v77.67h-40.55zM494.01 140.11h46.14v80.38h-46.14zM591.15 140.11h40.55v80.38h-40.55zM454.9 305.17h37.55v69.99H454.9zM492.45 138.72V67.41h1.56v71.31h46.15V65.83H454.9v72.89h37.55zM494.01 305.17h46.14v69.99h-46.14zM591.15 305.17h40.55v69.99h-40.55zM545.77 140.11h43.82v80.38h-43.82zM545.77 305.17h43.82v69.99h-43.82zM545.77 226.11h43.82v77.67h-43.82z" class="cls-2"/></g><path id="Floor" d="M1079.84 563.92c-.17 0-263.12.3-476.94.3s-456.7-.3-469.22-.3c-.17 0 255.33-.3 469.22-.3s476.94.3 476.94.3Z" class="cls-13"/><g id="Character_2"><path d="M864.81 484.56v78.73h9.33l3.48-78.95-12.81.22zM711.3 484.34l4.46 78.95h8.84l.1-78.73-13.4-.22z" class="cls-13"/><rect width="174.89" height="56.99" x="696.66" y="433.37" class="cls-12" rx="7.56" ry="7.56"/><path d="M879.5 407.88c2.09-15.77 3.8-32.76-3.78-46.74-7.87-14.53-25.24-22.77-41.7-21.28-16.46 1.49-31.47 11.9-40.14 25.97-8.67 14.07-11.3 31.38-8.98 47.74" class="cls-12"/><path d="M799.6 470.28c0 .17-19.93.3-44.52.3s-44.52-.13-44.52-.3 19.93-.3 44.52-.3 44.52.13 44.52.3Z" class="cls-13"/><path d="M800.24 469.95c.04.05-3.79 3.25-8.55 7.14-4.77 3.89-8.67 7.01-8.71 6.96-.04-.05 3.79-3.25 8.56-7.14 4.77-3.89 8.66-7.01 8.71-6.96ZM783.23 451.56c.04.05-11.87 8.54-26.6 18.94-14.74 10.41-26.71 18.8-26.75 18.75-.04-.05 11.87-8.53 26.61-18.95 14.73-10.41 26.7-18.8 26.74-18.75ZM742.66 450.69c.04.05-7.78 5.77-17.46 12.76-9.69 7-17.57 12.62-17.61 12.57-.04-.05 7.78-5.77 17.46-12.76s17.56-12.62 17.6-12.57ZM724.54 438.42s-.06.05-.19.13c-.18.1-.36.21-.55.32-.61.35-1.28.74-2.04 1.17-1.71 1-4.05 2.43-6.54 4.14-2.49 1.71-4.67 3.38-6.21 4.62-.68.55-1.28 1.04-1.82 1.48-.17.14-.34.27-.5.4-.12.09-.18.13-.18.13s.05-.06.15-.16l.47-.44c.41-.38 1.01-.9 1.77-1.54a82.831 82.831 0 0 1 12.77-8.78c.87-.48 1.58-.86 2.08-1.1.2-.1.39-.19.57-.28.13-.06.2-.09.21-.08ZM878.47 366.56s-.12.11-.35.31c-.29.24-.63.53-1.03.86-.9.75-2.22 1.81-3.86 3.1-3.29 2.58-7.92 6.03-13.21 9.59-5.29 3.56-10.23 6.57-13.85 8.65-1.81 1.04-3.29 1.87-4.32 2.42-.46.25-.85.45-1.19.63-.27.14-.42.21-.42.21s.13-.09.4-.25l1.16-.67c1.1-.64 2.54-1.48 4.28-2.48 3.6-2.12 8.51-5.14 13.8-8.7 5.28-3.56 9.93-6.99 13.24-9.53 1.58-1.23 2.9-2.25 3.91-3.03.41-.32.76-.59 1.06-.83.24-.19.38-.28.38-.28Z" class="cls-3"/><path d="M851.09 348.68s.18.06.49.24c.3.18.78.41 1.32.8 1.13.73 2.67 1.95 4.33 3.71 3.34 3.48 6.78 9.47 8.29 16.7 1.5 7.24 1.18 13.96.81 18.73-.19 2.39-.41 4.32-.58 5.65-.09.61-.16 1.11-.21 1.53-.06.35-.1.53-.12.53-.04 0 0-.75.1-2.08.1-1.34.25-3.27.39-5.66.25-4.76.5-11.44-.98-18.57-1.48-7.13-4.8-13.04-8.01-16.54-3.19-3.56-5.92-4.91-5.82-5.04Z" class="cls-13"/><path d="M868.07 350.64s-.05.06-.16.16c-.16.13-.32.27-.5.42-.43.36-1.07.86-1.87 1.47a97.751 97.751 0 0 1-6.43 4.51 97.613 97.613 0 0 1-6.76 3.99c-.89.47-1.61.85-2.11 1.09-.2.1-.4.19-.58.28-.13.06-.21.09-.21.08 0 0 .06-.05.19-.13.18-.1.37-.21.56-.32.62-.34 1.3-.73 2.07-1.16 1.75-.99 4.14-2.39 6.71-4.05 2.57-1.66 4.84-3.26 6.45-4.44.71-.52 1.34-.99 1.91-1.41.18-.13.36-.26.52-.38.12-.08.19-.13.19-.12Z" class="cls-3"/><path d="m677.46 518.82 1.16 28.6s-28.68 10.78-28.98 16.09l55.53-.26.02-44.63-27.73.2Z" class="cls-15"/><g class="cls-19"><path d="M695.78 544.93c1.08.29 1.82 1.49 1.58 2.58s-1.46 1.86-2.54 1.59-2.02-1.69-1.66-2.74c.36-1.05 1.85-1.88 2.83-1.36" class="cls-2"/></g><g class="cls-19"><path d="m705.17 563.25-.17-4.5-53.18 1.93s-2.47 1.09-2.18 2.83l55.53-.26Z" class="cls-2"/></g><path d="M677.72 547.14c.01.27 1.37.39 2.7 1.25 1.36.83 2.05 2 2.3 1.89.25-.05-.16-1.67-1.8-2.69-1.63-1.03-3.27-.7-3.21-.45ZM671.9 549.57c-.06.26 1.12.72 2.04 1.86.96 1.12 1.2 2.35 1.47 2.34.25.04.44-1.55-.74-2.95-1.17-1.41-2.76-1.52-2.77-1.26ZM668.63 556.56c.25.06.62-1.3-.09-2.78-.69-1.49-1.97-2.07-2.09-1.84-.15.22.67 1.02 1.23 2.24.59 1.21.67 2.35.94 2.38ZM678.18 540.59c.11.25 1.36-.13 2.89-.04 1.54.07 2.73.57 2.87.34.16-.2-1.01-1.19-2.82-1.28-1.81-.1-3.07.77-2.94.98Z" class="cls-13"/><path d="m677.69 524.48.2 5.1 27.3-.38.01-4.59-27.51-.13z" class="cls-18"/><path d="M678.05 534.82c0 .11 1.07.27 2.78-.03.85-.15 1.85-.43 2.91-.91.52-.24 1.06-.52 1.59-.85.26-.17.56-.33.84-.66.3-.28.47-1 .12-1.44-.29-.43-.79-.61-1.19-.61-.41-.01-.74.07-1.04.15a9.776 9.776 0 0 0-4.29 2.3c-1.28 1.2-1.72 2.21-1.62 2.27.12.09.75-.76 2.05-1.75.65-.49 1.48-1 2.47-1.41.5-.2 1.03-.37 1.59-.5.59-.16 1.09-.16 1.24.1.06.1.06.14-.06.31-.13.16-.36.32-.62.48a14.728 14.728 0 0 1-4.15 1.89c-1.59.45-2.64.53-2.63.68Z" class="cls-13"/><path d="M678.4 535.2c.1.04.63-.93.72-2.69.04-.87-.05-1.93-.39-3.04-.17-.56-.41-1.13-.72-1.69-.33-.55-.73-1.28-1.78-1.4-.55-.02-1 .41-1.16.78-.18.38-.22.7-.28 1.02-.1.65-.08 1.28 0 1.87a6.46 6.46 0 0 0 1.2 2.87c1.09 1.43 2.22 1.75 2.25 1.66.09-.14-.86-.66-1.69-2.03-.41-.68-.78-1.58-.89-2.61a5.83 5.83 0 0 1 .04-1.61c.08-.59.3-1.07.52-1.01.28 0 .75.44.98.91.29.5.52 1 .7 1.5.35 1 .51 1.96.55 2.77.08 1.63-.2 2.65-.05 2.69ZM756.03 395.71l-64.16-10.12c-6.33-1-12.78.77-17.71 4.87a22.307 22.307 0 0 0-8.04 18.01l4.56 116.79h39.58v-90.7l38 .7 30.14-26.51 21.73-3.86 16.21-9.87-60.31.7Z" class="cls-13"/><path d="M710.26 411.63s.02.1.04.29c.02.23.03.51.06.86.05.76.09 1.87.13 3.31.09 2.87.17 7.04.24 12.18.14 10.28.25 24.49.28 40.17.03 15.69-.03 29.9-.17 40.18-.07 5.14-.15 9.3-.27 12.18-.05 1.44-.1 2.55-.18 3.31-.03.35-.06.63-.08.86-.02.19-.04.29-.05.29-.01 0-.01-.1-.01-.3 0-.23.01-.51.02-.86.04-.75.05-1.87.06-3.31.04-2.87.06-7.03.08-12.17v-40.18c-.08-30.87-.14-53.54-.14-56.81Z" class="cls-12"/><path d="m769.1 529.33 15.41 24.12s-19.34 23.76-16.93 28.5l47.84-28.19-22.46-38.57-23.86 14.14Z" class="cls-15"/><g class="cls-19"><path d="M798.08 542.66c1.08-.29 2.33.37 2.66 1.43.34 1.06-.33 2.34-1.4 2.65-1.07.31-2.6-.44-2.81-1.53-.22-1.09.65-2.55 1.76-2.6" class="cls-2"/></g><g class="cls-19"><path d="m815.42 553.75-2.42-3.8-44.97 28.45s-1.58 2.18-.46 3.54l47.84-28.19Z" class="cls-2"/></g><path d="M783.59 553.66c.15.23 1.38-.35 2.97-.28 1.59.03 2.78.69 2.94.48.19-.17-.98-1.36-2.91-1.42-1.93-.07-3.18 1.04-3 1.22ZM779.79 558.69c.08.26 1.33.06 2.7.58 1.39.48 2.22 1.43 2.45 1.28.24-.09-.4-1.56-2.13-2.17-1.72-.63-3.15.08-3.02.31ZM780.48 566.38c.24-.08-.12-1.43-1.47-2.36-1.35-.94-2.75-.79-2.73-.54-.02.27 1.1.54 2.2 1.32 1.12.75 1.77 1.7 2.01 1.58ZM780.69 547.77c.22.16 1.11-.8 2.48-1.49 1.36-.72 2.65-.88 2.65-1.15.04-.25-1.48-.52-3.08.31-1.61.82-2.27 2.21-2.05 2.33Z" class="cls-13"/><path d="m772.16 534.1 2.74 4.3 23.39-14.07-2.31-3.97-23.82 13.74z" class="cls-18"/><path d="M777.67 542.85c.05.1 1.06-.3 2.39-1.42.66-.56 1.38-1.31 2.05-2.25.33-.47.66-.98.95-1.54.14-.27.31-.57.39-.99.12-.4-.1-1.1-.63-1.31-.46-.22-.99-.13-1.34.07-.36.2-.6.44-.83.65-.46.44-.85.91-1.19 1.39-.67.95-1.1 1.92-1.36 2.75-.5 1.68-.37 2.78-.26 2.78.15.01.26-1.03.89-2.55.31-.75.78-1.61 1.43-2.46.33-.42.7-.84 1.13-1.23.43-.43.86-.69 1.12-.54.1.06.12.09.11.3-.03.2-.16.46-.29.72a14.975 14.975 0 0 1-2.63 3.72c-1.15 1.19-2.01 1.79-1.93 1.91Z" class="cls-13"/><path d="M778.17 543.01c.1-.01.07-1.12-.73-2.69-.4-.77-1.02-1.64-1.87-2.43-.43-.39-.92-.77-1.47-1.1-.56-.31-1.27-.74-2.24-.31-.48.26-.66.86-.61 1.26.03.42.16.71.27 1.02.24.61.57 1.15.95 1.61.75.93 1.67 1.53 2.48 1.87 1.67.69 2.8.39 2.78.3 0-.16-1.07-.13-2.49-.9a6.37 6.37 0 0 1-2.08-1.8c-.31-.42-.58-.89-.77-1.41-.23-.55-.28-1.08-.05-1.14.24-.14.87 0 1.3.29.5.28.95.61 1.36.95.81.69 1.43 1.44 1.87 2.12.89 1.37 1.16 2.39 1.31 2.35Z" class="cls-13"/><path d="m680.24 328.73-18.57-9.46c-4.84-2.09-6.69-3.3-6.24-4.18.6-1.18.32-.75 9.65 1.8 0 0-13.29-3.76-9.77-5.21.62-.26 2.75.07 5.09.55-3.38-1.15-4.65-2.32-4.44-3.2.35-1.52 8.31.34 12 1.29-3.04-.82-8.86-2.45-10.07-3.2-1.66-1.03.58-1.78 2.6-1.87 2.27-.11 15.55 1.16 19.4 1.32 2.65.11 2.63-2.24 2.63-2.24-.8-5.54 1.54-10.28 2.77-11.27 1.24-.98 3.01.38 2.52 2.06-.39 1.36-.36 3.82-.25 5.66.08 1.52.41 3.01.99 4.41.68 1.62 1.31 2.97 1.88 4.1l15.19 15.09-12.21 15.46-13.18-11.13Z" class="cls-4"/><path d="M669.96 318.77c-.06.24-2.96-.43-6.47-1.48-3.52-1.06-6.3-2.1-6.22-2.33.08-.23 2.98.44 6.47 1.48 3.49 1.05 6.28 2.09 6.22 2.33ZM672.4 314.86c-.06.24-3.18-.3-6.98-1.19-3.8-.9-6.84-1.81-6.78-2.05.06-.24 3.18.3 6.98 1.19 3.8.9 6.84 1.81 6.78 2.05ZM674.29 311.5c-.05.24-3.02-.22-6.63-1.02s-6.49-1.64-6.44-1.88c.05-.24 3.02.22 6.63 1.02s6.49 1.64 6.44 1.88Z" class="cls-1"/><path d="M762.38 200.36c4.73-1.45 9.65 2.79 14.51 1.84 2.95-.58 5.17-2.93 7.79-4.39 3.92-2.19 9.46-2.54 13.46-.51 4 2.03 6.58 4.2 7.13 8.66 3.64-2.09 9.72 2.5 11.79 6.92 2.07 4.42 1.55 9 .38 13.74a64.5 64.5 0 0 1-10.66 22.69c-.44.6-1.15 1.26-1.82.95-.47-.22-.62-.8-.7-1.31-.7-4.34-.15-8.76.23-13.14.38-4.38.56-8.89-.82-13.06s-4.64-7.97-8.95-8.82c-3.18-.63-6.49.41-9.32 2s-5.32 3.71-8.01 5.52c-2.69 1.81-5.72 3.33-8.96 3.47-3.24.14-6.72-1.39-8.1-4.32-1.38-2.94.17-7.11 3.34-7.78-2.91-.27-5.46-2.79-5.76-5.7s1.68-5.9 4.48-6.75Z" class="cls-13"/><path d="m810.62 227.95-4.7 49.03c-.8 8.34-9.54 20.7-17.83 19.49-7.73-1.13-12.09-14.53-11.34-22.31.36-3.69.65-6.77.66-7.15 0 0-12.37-2.37-12.09-14.81.14-6.01 1.43-18.37 2.72-29.54 1.39-11.99 11.77-20.9 23.84-20.48l1.2.04c12.91 1.21 19.09 12.85 17.53 25.72Z" class="cls-4"/><path d="M777.4 266.83s7.84.91 16.37-4.04c0 0-4.15 8.81-16.51 7.26l.14-3.22Z" class="cls-1"/><path d="M771.38 231.12c-.07.94.67 1.76 1.65 1.85.97.09 1.82-.6 1.89-1.54.07-.94-.67-1.77-1.65-1.85-.98-.09-1.82.6-1.89 1.54ZM770.51 228.86c.21.24 1.59-.71 3.5-.64 1.91.04 3.28 1.08 3.49.85.11-.1-.1-.53-.7-.99-.59-.46-1.6-.93-2.79-.97-1.19-.04-2.21.37-2.8.8-.6.43-.82.84-.71.95ZM790.1 232.42c-.07.94.67 1.76 1.65 1.85.97.09 1.82-.6 1.89-1.54.07-.94-.67-1.77-1.65-1.85-.98-.09-1.82.6-1.89 1.54ZM789.28 229.87c.21.24 1.59-.71 3.5-.64 1.91.04 3.28 1.08 3.49.85.11-.1-.1-.53-.7-.99-.59-.46-1.6-.93-2.79-.97-1.19-.03-2.21.37-2.8.8-.6.43-.82.84-.71.95ZM781.85 243.8c.01-.11-1.17-.36-3.08-.67-.49-.07-.94-.18-1.02-.52-.1-.36.12-.88.38-1.43.5-1.16 1.02-2.39 1.57-3.66 2.19-5.22 3.79-9.52 3.58-9.6-.21-.09-2.16 4.07-4.35 9.29-.53 1.29-1.03 2.51-1.51 3.69-.2.55-.54 1.17-.32 1.91.12.37.47.65.78.74.31.11.58.12.82.14 1.93.17 3.13.22 3.15.11ZM787.43 245.32c-.31-.03-.39 2.04-2.21 3.45-1.82 1.41-4.03 1.1-4.05 1.39-.03.13.48.42 1.41.48.91.06 2.26-.18 3.38-1.05 1.11-.87 1.62-2.05 1.72-2.9.11-.86-.1-1.39-.25-1.38ZM789.05 222.37c.17.53 2.09.35 4.32.7 2.24.3 4.02 1.02 4.34.57.14-.22-.16-.72-.87-1.25s-1.85-1.05-3.19-1.24c-1.34-.19-2.58-.02-3.41.28-.83.3-1.26.7-1.19.95ZM771.41 223.35c.32.45 1.65.04 3.24.08 1.58-.02 2.91.39 3.24-.05.14-.22-.05-.66-.62-1.09-.56-.43-1.52-.8-2.61-.8-1.09 0-2.05.36-2.61.78-.57.43-.77.87-.63 1.08Z" class="cls-13"/><path d="M809.28 237.12c.22-.08 8.63-2.23 8.06 6.26-.57 8.49-8.98 6.17-8.98 5.92 0-.24.91-12.19.91-12.19Z" class="cls-4"/><path d="M811.18 246.26s.14.11.38.24.65.23 1.1.1c.92-.27 1.77-1.64 1.91-3.17a5.02 5.02 0 0 0-.27-2.15c-.22-.64-.59-1.1-1.04-1.21-.44-.13-.78.11-.9.35-.13.23-.09.4-.13.41-.03.02-.17-.15-.08-.5.05-.17.16-.36.37-.51.21-.15.52-.22.83-.16.65.09 1.2.73 1.46 1.42.29.69.44 1.53.35 2.4-.17 1.71-1.15 3.25-2.4 3.52-.61.12-1.09-.1-1.34-.32-.25-.23-.28-.42-.25-.43Z" class="cls-1"/><path d="M765.51 219.99c5.43 1.65 11.63.48 16.08-3.03 3.11-2.46 5.58-6.06 9.41-7.1 2.58-.7 5.39-.05 7.69 1.33 2.29 1.37 4.12 3.41 5.67 5.59-2.62 6.23-1.26 13.34.15 19.96.16.73.34 1.52.92 2 .98.81 2.51.26 3.41-.63 1.45-1.42 2.07-3.48 2.5-5.46.98-4.53 1.26-9.24.4-13.79-.86-4.55-2.89-8.93-6.12-12.25-4.04-4.14-9.83-6.42-15.61-6.53-5.78-.11-11.53 1.86-16.26 5.18-2.2 1.54-4.24 3.43-5.43 5.83" class="cls-13"/><path d="M758.7 203.24s-.06.26.05.74c.11.47.42 1.17 1.13 1.79.7.63 1.82 1.07 3.14 1.17.66.05 1.37.06 2.11-.06.74-.12 1.54-.37 2.2-.93.65-.54 1.18-1.39 1.15-2.36-.03-.99-.8-1.86-1.73-2.23-.47-.2-.99-.29-1.52-.25-.53.04-1.06.26-1.48.6-.87.68-1.33 1.8-1.37 2.93-.05 1.14.43 2.3 1.23 3.17.8.87 1.86 1.5 3.02 1.86 2.33.73 4.94.37 7.29-.54 2.38-.9 4.46-2.25 6.42-3.57 1.96-1.31 3.86-2.57 5.83-3.44 1.95-.89 3.99-1.33 5.89-1.22 1.9.11 3.62.71 5.04 1.48 2.86 1.58 4.5 3.8 5.46 5.32.48.78.8 1.41 1.02 1.84.21.43.32.66.33.66 0 0-.01-.06-.05-.18s-.1-.29-.2-.51c-.19-.45-.49-1.1-.95-1.89-.93-1.56-2.55-3.84-5.46-5.5-1.44-.81-3.2-1.44-5.16-1.57-1.96-.13-4.07.31-6.07 1.21-2.01.88-3.93 2.15-5.9 3.45-1.96 1.31-4.02 2.64-6.34 3.52-2.3.89-4.8 1.22-7.02.53-1.1-.34-2.1-.93-2.84-1.73-.75-.8-1.18-1.84-1.14-2.88.03-1.03.45-2.05 1.21-2.65.74-.63 1.8-.68 2.64-.32.84.34 1.51 1.09 1.54 1.93.04.84-.42 1.62-1.01 2.12-.6.51-1.35.77-2.05.89-.71.12-1.41.13-2.05.09-1.28-.08-2.36-.48-3.05-1.06-.7-.58-1.02-1.24-1.15-1.69-.13-.46-.11-.72-.13-.72ZM818.32 220.25c-.03-.09-.97.45-2.62.58-.82.05-1.81-.04-2.84-.4-1.03-.34-2.11-.92-3.13-1.65-2.05-1.49-3.16-3.62-3.61-5.2-.46-1.6-.39-2.66-.47-2.65-.03 0-.06.26-.07.73 0 .47.05 1.17.25 2 .39 1.64 1.5 3.9 3.65 5.46 1.07.75 2.17 1.34 3.26 1.67 1.08.35 2.13.42 2.98.32.85-.1 1.52-.33 1.95-.52.43-.2.66-.34.64-.36ZM817.73 226.39c0-.08-1.01.11-2.61-.04-1.59-.14-3.8-.71-5.79-2.12-1.99-1.42-3.25-3.33-3.9-4.78-.66-1.46-.81-2.47-.89-2.45-.03 0-.01.26.07.71.08.45.24 1.1.55 1.86.59 1.52 1.86 3.53 3.93 5.01 2.07 1.47 4.38 2.02 6.01 2.08.82.04 1.49-.02 1.94-.09.45-.07.7-.14.69-.17Z" class="cls-12"/><path d="M795.34 238.22c.11.03.23-.05.26-.18.03-.12-.04-.25-.15-.27-.11-.03-.23.05-.26.18-.03.12.04.25.15.27ZM791.72 237.26c.11.03.23-.07.27-.21.03-.14-.03-.28-.14-.31-.11-.03-.23.07-.27.21-.03.14.03.28.14.31ZM789.27 237.12c.11.02.23-.12.26-.31s-.04-.36-.15-.37c-.11-.02-.23.12-.26.31s.04.36.15.37ZM793.47 240.45c.12 0 .21-.05.22-.13 0-.07-.09-.14-.21-.14s-.21.05-.22.13c0 .07.09.14.21.14ZM790.15 239.55c.12.01.22-.08.24-.21.02-.13-.06-.25-.18-.26-.12-.01-.22.08-.24.21-.02.13.06.25.18.26ZM772.8 236.86c.11.03.23-.06.26-.18.03-.13-.04-.25-.15-.28s-.23.06-.26.18c-.03.13.04.25.15.28ZM770.32 236.55c.12.02.22-.09.24-.24.02-.15-.06-.28-.17-.29-.12-.02-.22.09-.24.24-.02.15.06.28.17.29ZM774.99 237c.11.03.22-.03.25-.13.02-.1-.05-.2-.16-.23a.202.202 0 0 0-.25.13c-.02.1.05.2.16.23ZM773.06 239.43c.1.05.24 0 .3-.13.06-.12.02-.26-.08-.31-.1-.05-.24 0-.3.13s-.02.26.08.31ZM770.95 238.93c.11-.03.19-.13.16-.22-.02-.1-.13-.15-.25-.12-.11.03-.19.13-.16.22.02.1.13.15.25.12Z" class="cls-1"/><path d="M799.83 403.92c-1.03.1-66.97 7.9-77.32 13.71-5.72 3.21-5.21 8.83-6.11 11.22-3.49 9.37-.51 18.88 4.35 27.62l48.35 84.29 30.66-20.62-30.81-67.28 47.17-4.63a25.677 25.677 0 0 0 21.51-20l5.61-26.01-43.4 1.7Z" class="cls-13"/><path d="M799.76 520.15c-.15.07-8.96-18.91-19.68-42.39-10.72-23.49-19.29-42.57-19.13-42.64.15-.07 8.96 18.91 19.68 42.39 10.72 23.48 19.28 42.57 19.13 42.64ZM799.83 407.97s-.1.03-.31.05c-.24.02-.53.05-.9.09-.84.07-2 .17-3.47.29-3.06.25-7.41.6-12.76 1.03-10.77.89-25.67 2.01-42.08 3.58-2.05.2-4.08.42-6.07.64-.98.14-2 .23-2.93.42-.95.13-1.87.5-2.77.81-3.6 1.34-6.77 3.47-8.99 6.22a21.132 21.132 0 0 0-2.74 4.35c-.68 1.52-1.12 3.1-1.39 4.64-.53 3.1-.5 6.08-.2 8.74.67 5.34 2.05 9.53 3.11 12.34a44.33 44.33 0 0 0 1.37 3.19c.16.33.29.6.39.82.09.18.13.28.12.29 0 0-.07-.08-.17-.26s-.26-.44-.45-.79c-.37-.7-.9-1.76-1.48-3.16a50.43 50.43 0 0 1-3.32-12.37c-.33-2.7-.39-5.71.13-8.88.27-1.58.71-3.2 1.4-4.78.73-1.56 1.65-3.07 2.79-4.48 2.27-2.84 5.53-5.05 9.21-6.42.93-.32 1.84-.7 2.86-.84 1-.2 1.98-.28 2.98-.43 2-.23 4.03-.45 6.08-.65 16.43-1.57 31.32-2.63 42.11-3.41 5.36-.35 9.71-.64 12.78-.84 1.47-.08 2.64-.14 3.48-.18.37-.01.67-.02.91-.03.2 0 .31 0 .31.01Z" class="cls-12"/><path d="m832.21 360.91 2.49-79.46-25-5.34-2.71-4.4-16.81 10.82-3.37 7.59-4.09-8.67-6.06-4.6-2.79 5.38-18.84 7.75a7.863 7.863 0 0 0-4.03 3.74l-21.15 42.21-37.5-25.98-11.61 20.45 43.41 36.98c8.1 5.17 18.83 3.05 24.36-4.8l11.13-15.81 4.67 26.62.77 26.99 32.69 6.09 45.78-4.25-11.33-41.32Z" class="cls-15"/><path d="M796.1 406.06c15.84 1.67 32.23-2.55 45.3-11.65l-2.5-9.09-42.81 20.74Z" class="cls-18"/><path d="M834.7 281.45s-15.57 4.78-16.78 20.55c-1.21 15.77-1.81 60.95-1.81 60.95s-2.43 1.82-1.82 3.64c.61 1.82-44.88 27.29-44.88 27.29l9.1 15.85s28.99-3.46 61.48-20.48c16.61-8.7 10.07-76.89 9.77-77.8-.3-.91-4.4-30.03-15.05-29.99Z" class="cls-15"/><path d="M764.31 373.39s-.08-.23-.18-.67c-.1-.51-.24-1.15-.4-1.94-.33-1.77-.79-4.19-1.35-7.15-.55-3.05-1.21-6.64-1.93-10.63-.36-2-.73-4.1-1.12-6.28-.29-2.19-.59-4.46-.9-6.79-1.19-9.27-2.27-17.66-3.06-23.83-.36-2.99-.65-5.44-.86-7.23-.08-.8-.15-1.45-.2-1.97-.04-.45-.05-.69-.03-.69.02 0 .07.23.15.68.08.51.19 1.16.32 1.95.26 1.78.61 4.22 1.05 7.2.84 6.16 1.97 14.54 3.23 23.8.3 2.32.6 4.59.89 6.79.37 2.18.74 4.28 1.08 6.28.68 3.99 1.29 7.59 1.8 10.64.48 2.97.88 5.41 1.16 7.18.12.8.21 1.45.29 1.96.06.45.08.69.06.69ZM778.5 409.73s-.07-.08-.18-.26c-.12-.2-.28-.46-.48-.79-.43-.73-1.04-1.76-1.83-3.08-1.59-2.74-3.89-6.68-6.77-11.62l-.11-.19.21-.08c5.9-2.25 12.77-6.08 20.21-11 7.48-4.85 15.55-10.85 25.02-15.86l-.12.41c-1.23-2.14.24-5.38 2.93-5.72l-.27.26c.15-1.16.32-2.41.48-3.66 1.38-11.17 1.68-21.92 1.25-31.65-.2-4.87-.67-9.48-.95-13.82-.27-4.34-.28-8.42.25-12.1.5-3.68 1.58-6.91 2.92-9.54 1.35-2.62 2.93-4.66 4.45-6.08 1.51-1.43 2.88-2.3 3.85-2.8.48-.27.87-.41 1.12-.53.26-.11.39-.16.39-.15.08.1-2.24.77-5.2 3.65-1.47 1.43-3 3.46-4.31 6.06-1.29 2.61-2.33 5.81-2.79 9.45-.49 3.64-.46 7.69-.17 12.01.3 4.32.79 8.94 1 13.83.46 9.76.18 20.55-1.21 31.75-.17 1.26-.33 2.51-.49 3.67l-.03.23-.24.02c-2.19.22-3.52 3.11-2.47 4.82l.16.27-.28.15c-9.41 4.97-17.5 10.95-25.01 15.77-7.47 4.9-14.4 8.71-20.36 10.92l.1-.27 6.62 11.71c.75 1.34 1.33 2.39 1.74 3.13.18.34.33.61.44.81.1.18.14.28.13.28Z" class="cls-13"/><path d="M822.76 374.99c-.18.07-.91-2.68-3.29-5.07-2.34-2.44-5.07-3.24-4.99-3.41.02-.07.72.03 1.77.47 1.05.44 2.42 1.27 3.65 2.52 1.22 1.26 2.02 2.65 2.43 3.71.41 1.06.5 1.77.43 1.78ZM825.07 371.04c-.18.07-.98-2.65-3.26-5.16-2.24-2.54-4.86-3.63-4.77-3.8.01-.15 2.86.74 5.22 3.4 2.39 2.63 2.96 5.56 2.81 5.56ZM839.98 389.24s-.19.13-.56.33c-.44.22-1 .49-1.67.83-1.46.7-3.59 1.69-6.24 2.86-5.3 2.35-12.69 5.44-21.01 8.44-8.32 3.01-16.02 5.3-21.7 6.51-2.85.56-5.15 1.02-6.77 1.15-.75.08-1.37.14-1.86.19-.43.04-.65.05-.65.03 0-.02.22-.07.64-.15.49-.08 1.09-.18 1.84-.3 1.6-.2 3.89-.72 6.71-1.33 5.63-1.31 13.28-3.65 21.59-6.66 8.31-2.99 15.71-6.02 21.05-8.27 2.61-1.11 4.74-2.01 6.31-2.68.7-.29 1.26-.53 1.72-.72.4-.16.61-.24.62-.22ZM781.55 281.6s-.14.21-.34.58c-.2.38-.44.96-.67 1.7a32.84 32.84 0 0 0-1.23 5.98l-.09.87-.46-.74c-.04-.07-.08-.14-.13-.21-1.31-2.13-2.29-4.14-3.22-5.45-.9-1.33-1.61-2.04-1.55-2.11.04-.05.88.56 1.89 1.86 1.04 1.28 2.1 3.3 3.38 5.39.04.07.09.14.13.2l-.55.13c.27-2.45.85-4.58 1.43-6.07.29-.74.6-1.32.87-1.69.28-.36.52-.49.54-.46ZM807.19 278.54c.06.09-1.35.99-3.42 2.72a46.047 46.047 0 0 0-7.26 7.57 43.733 43.733 0 0 0-2.69 3.99l-.31.52-.2-.57c-.97-2.78-1.78-5.18-2.33-6.88-.55-1.7-.85-2.72-.79-2.74.06-.02.47.95 1.12 2.62s1.53 4.04 2.54 6.81l-.51-.05c.76-1.31 1.67-2.69 2.71-4.06 2.51-3.32 5.31-5.89 7.47-7.54 1.08-.83 2-1.43 2.64-1.84.65-.39 1.02-.59 1.05-.55ZM790.14 365.24s-.06-.25-.13-.72c-.07-.54-.15-1.23-.25-2.08-.21-1.8-.48-4.42-.78-7.65-.61-6.46-1.34-15.4-1.93-25.29-.59-9.89-.94-18.85-1.1-25.34-.08-3.24-.13-5.87-.14-7.69v-2.09c0-.48.02-.73.04-.73s.05.25.08.73c.03.54.06 1.23.11 2.09.08 1.89.19 4.49.33 7.68.27 6.48.68 15.44 1.27 25.32s1.25 18.82 1.75 25.29c.25 3.18.45 5.78.59 7.66.06.85.1 1.55.14 2.09.03.48.03.73 0 .73Z" class="cls-13"/><path d="M813.13 345.6s-.34.5-1.04 1.32c-.7.83-1.74 2-3.06 3.41-2.65 2.82-6.47 6.58-10.99 10.39-4.52 3.81-8.87 6.94-12.1 9.07-1.62 1.07-2.94 1.9-3.88 2.44-.93.55-1.46.84-1.48.8-.02-.04.46-.39 1.35-1 .98-.68 2.25-1.55 3.76-2.6 3.16-2.21 7.45-5.39 11.95-9.18 4.5-3.8 8.35-7.48 11.07-10.22 1.29-1.32 2.36-2.42 3.2-3.27.75-.78 1.18-1.19 1.21-1.17Z" class="cls-13"/><path d="M786.3 384.02c-.17 0-.25-3.31-.18-7.39s.25-7.39.42-7.38c.17 0 .25 3.31.18 7.39s-.25 7.39-.42 7.38Z" class="cls-13"/><path d="M759.29 347.4c-.33-8.24-1.66-16.51-3.1-24.63-.99 12.36-2.8 24.85-5.65 36.92l8.75-12.29ZM786.8 290.12c1.17-.97 2.57-.18 3.27 1.17.7 1.35.6 2.96.63 4.48.02.84.09 1.71.47 2.45.39.75 1.16 1.35 2 1.3.99-.06 1.7-.93 2.28-1.73 4.59-6.34 8.88-12.9 12.87-19.64-6.43 2.49-10.76 8.6-14.92 15.08-.17.07-3.37-10.36-3.37-10.36-.89 2.25-2.34 5-3.22 7.25M773.53 282.49c2.4 5.47 5.58 10.6 9.41 15.18.25-3.74-.03-7.52-.83-11.19 1.17.81 3.52 2.82 4.69 3.63 0 0-2.55-5.51-3.6-7.51-.28-.53-.7-1.13-1.3-1.1-.69.03-1.03.84-1.2 1.52l-1.68 6.56a18.127 18.127 0 0 0-5.17-7.46M781.72 372.17c-.58-3.56.95-7.4 3.83-9.58 2.24-1.69 5.11-2.39 7.34-4.09 3.86-2.94 5.34-8.48 9.64-10.74 1.61-.84 4.04-.86 4.78.8.66 1.48-.53 3.1-1.65 4.26a118.185 118.185 0 0 1-23.95 19.13M814.95 367.16c2.12 2.1 3.36 5.05 3.4 8.03 0 .88-.08 1.77.12 2.63s.78 1.7 1.63 1.9c1.17.27 2.31-.83 2.52-2.01.21-1.18-.24-2.38-.73-3.48-1.41-3.19-3.39-6.44-6.61-7.78" class="cls-18"/><path d="M729.48 335.67c1.83 2.1 3.2 7.55 3.02 10.33s-.86 3.49-.6 6.26c.05.52-.83.69-.42 1.01.67.53 1.75-.02 2.05-.82.31-.8.09-1.7-.13-2.53-.08 1.06 1.16 1.88 2.19 1.63s1.74-1.26 1.94-2.31c.2-1.04 0-2.12-.22-3.16-.5-2.38-1.08-4.79-2.35-6.86-1.27-2.07-3.33-3.79-5.74-4.08" class="cls-17"/><path d="M731.77 352.79c-.2-.03.88-3.97.24-8.85-.58-4.89-2.6-8.44-2.41-8.52.06-.03.64.8 1.31 2.29s1.38 3.66 1.7 6.15c.31 2.49.16 4.77-.13 6.38-.28 1.61-.64 2.56-.71 2.54Z" class="cls-13"/><path d="M801.13 490.36c-4.83-21.62 3.42-58.75 18.82-74.68 15.4-15.93 39.01-23.45 60.79-19.36v95.1l-79.61-1.06Z" class="cls-12"/><path d="M880.38 450.27c.03.06-15.11 9.08-33.81 20.15-18.71 11.07-33.9 20-33.94 19.94-.03-.06 15.1-9.08 33.82-20.15 18.71-11.07 33.9-20 33.93-19.94ZM880.38 417.9s-.27.18-.8.51c-.57.35-1.34.83-2.31 1.42-2.06 1.26-4.96 3.02-8.51 5.18-7.2 4.36-17.16 10.36-28.21 16.91-11.05 6.55-21.1 12.41-28.41 16.57-3.66 2.07-6.63 3.75-8.7 4.87-.99.54-1.79.97-2.38 1.3-.55.29-.84.44-.84.44s.28-.17.81-.48c.59-.33 1.37-.78 2.36-1.33 2.1-1.2 5.04-2.87 8.66-4.94 7.3-4.2 17.33-10.07 28.38-16.62 11-6.56 20.97-12.51 28.24-16.84 3.57-2.14 6.48-3.88 8.55-5.12.97-.58 1.75-1.04 2.33-1.38.53-.31.82-.47.82-.47ZM870.12 396.87s-.19.12-.57.34c-.44.24-.98.55-1.66.93-1.52.83-3.59 1.97-6.12 3.36-5.18 2.81-12.37 6.64-20.34 10.82-15.26 8.07-25.98 13.74-28.8 15.23 0 0 .19-.12.57-.34.44-.24.98-.55 1.66-.93 1.52-.83 3.59-1.97 6.12-3.36 5.18-2.81 12.38-6.64 20.34-10.82 15.25-8.07 25.98-13.74 28.8-15.23Z" class="cls-3"/><path d="M878.75 396.95s-.13 0-.37-.01c-.28-.02-.63-.06-1.08-.1-.95-.07-2.35-.29-4.16-.37-3.61-.23-8.88-.32-15.3.55-.8.12-1.62.2-2.46.36-.83.17-1.68.34-2.54.51-1.74.3-3.49.86-5.33 1.34-3.62 1.15-7.47 2.5-11.24 4.52-3.77 1.99-7.62 4.35-11.13 7.4a58.062 58.062 0 0 0-9.68 10.57c-2.87 4.01-5.16 8.28-7.12 12.49-1.98 4.21-3.48 8.46-4.69 12.56-1.26 4.09-2.04 8.09-2.75 11.83-.58 3.76-1.01 7.28-1.19 10.52-.39 6.46-.17 11.72.21 15.32.11 1.81.39 3.2.47 4.15.05.45.09.8.12 1.08.02.24.03.37.02.37-.01 0-.04-.12-.08-.36-.05-.27-.11-.63-.18-1.07-.13-.95-.44-2.33-.59-4.14-.45-3.6-.74-8.88-.4-15.37.15-3.25.56-6.79 1.13-10.57.68-3.76 1.45-7.78 2.71-11.9 1.2-4.13 2.7-8.4 4.69-12.65 1.97-4.24 4.27-8.55 7.17-12.59a58.23 58.23 0 0 1 9.79-10.67c3.55-3.08 7.44-5.45 11.25-7.44 3.81-2.03 7.7-3.37 11.35-4.51 1.86-.46 3.62-1.03 5.38-1.31.87-.17 1.73-.34 2.56-.5.84-.15 1.67-.23 2.47-.34 6.46-.82 11.75-.66 15.37-.36 1.81.12 3.21.38 4.15.48.45.06.8.12 1.08.15.24.04.37.06.36.07Z" class="cls-13"/><path d="M770.4 395.51s-5.11-.17-7.66-1c-2.55-.84-7.11-1.51-9.26-1.17-2.16.33-7.68 2.51-11.19 3.51s-6.36.17-6.53 1.84 1.67 3.75 5.19 3.75c0 0-3.85 1.27-3.18 2.1.67.84 1.84 2.85 3.51 2.85 0 0 .17 3.01 3.01 3.35 0 0 1 2.51 5.86 3.68 0 0-.37 2.18 3.33 2.85 3.7.67 24.46-8.7 24.46-8.7l-7.53-13.06Z" class="cls-4"/></g><g id="Character_1"><path d="M382.48 277.06c-2.8-2.7-7.58-.35-9.92 2.75-2.35 3.1-4.01 7.1-7.58 8.66-3.56 1.56-8.2.22-11.19 2.7-4.13 3.43-1.81 11.37-6.27 14.35-1.77 1.18-4.11 1.14-6 2.12-4.46 2.3-4.41 8.59-3.72 13.56.97 6.97 2.03 14.2 5.88 20.1 3.85 5.9 11.34 10.04 18 7.77 6.4-2.19 9.69-9.1 12.29-15.34 3.6-8.64 7.21-17.28 10.81-25.92 2.08-5 4.19-10.07 4.87-15.44.68-5.37-.23-11.18-3.65-15.38M374.88 226.05c-.08-2.86 2.56-5.07 5.23-6.12 2.66-1.05 5.62-1.44 8-3.04 2.1-1.41 3.51-3.62 5.29-5.43 4.36-4.42 11.18-6.26 17.18-4.62 6 1.64 10.94 6.68 12.45 12.71 1.02 4.07.32 8.89-2.89 11.6-3.73 3.14-9.25 2.44-14.03 1.47-4.78-.98-10.18-1.94-14.17.86-2.4 1.69-3.78 4.44-5.25 6.99-1.47 2.55-3.31 5.15-6.09 6.1-2.78.96-6.55-.7-6.66-3.63" class="cls-13"/><path d="M375.08 227.62c.31 2.4-1.42 4.54-3.15 6.24-1.73 1.69-3.68 3.49-3.98 5.89-.36 2.8 1.69 5.56 1.1 8.32-.38 1.75-1.74 3.1-2.57 4.69-1.16 2.23-1.22 4.94-.51 7.35.71 2.41 1.85 7.81 3.52 9.68 4.64 5.19 12.03 9.67 18.82 11.23 6.79 1.56 13.83 1.57 20.78 1.14 5.69-.35 12.23-.09 16.97-7.91 2.46-4.05 3.67-9.44 4.98-14 1.12-3.92 2.1-8.12.93-12.03-.68-2.28-2.05-4.3-2.72-6.58-.84-2.85-.53-5.9-.87-8.85-.73-6.39-4.69-12.32-10.32-15.44-5.62-3.12-12.76-3.34-18.56-.58" class="cls-13"/><path d="M425.65 237.45c-.53-8.16-5.96-18.17-14.1-17.29l-25.39 6.48c-2.47.27-4.33 2.38-4.27 4.86l2.85 61.25c-.06.01-.12.03-.18.04 0 0 5.79 17.28 22.58 12 3.33-1.05 4.85-4.69 5.51-8.43l.17.02c0-.44.01-.86.02-1.28.55-4.32.1-8.41.1-8.41.05-4.95.04-6.97.05-6.93 0 0 10.43-1.75 12.56-15.37 1.06-6.77.7-17.87.1-26.94Z" class="cls-4"/><path d="M424.34 245.63c.03.92-.72 1.71-1.68 1.76-.96.05-1.77-.65-1.8-1.57-.03-.92.72-1.71 1.68-1.77.96-.05 1.77.65 1.8 1.57ZM423.26 243.23c-.22.23-1.54-.75-3.42-.74-1.88-.02-3.25.95-3.46.72-.1-.1.12-.51.72-.95.59-.44 1.6-.86 2.77-.86s2.16.43 2.72.87c.58.44.78.85.67.96ZM405.32 246.27c.03.92-.72 1.71-1.68 1.76-.96.05-1.77-.65-1.8-1.57-.03-.92.72-1.71 1.68-1.77.96-.05 1.77.65 1.8 1.57ZM404.8 243.62c-.22.23-1.54-.75-3.42-.74-1.88-.02-3.25.95-3.46.72-.1-.1.12-.51.72-.95.59-.44 1.6-.86 2.77-.86s2.15.43 2.72.87c.58.44.77.85.67.96ZM411.64 257.54c0-.11 1.16-.31 3.05-.56.48-.05.93-.15 1.01-.47.11-.35-.09-.86-.32-1.42-.45-1.16-.93-2.38-1.43-3.65-1.98-5.2-3.42-9.47-3.21-9.55.21-.08 1.99 4.07 3.97 9.27.48 1.28.93 2.5 1.37 3.67.18.54.5 1.16.25 1.88-.13.36-.48.62-.79.7-.31.09-.58.1-.81.11-1.9.11-3.08.12-3.09.01Z" class="cls-13"/><path d="M412.99 279.76s-9.15.61-18.24-4.82c0 0 4.44 9.34 18.06 8.04l.18-3.21ZM410.86 262.07c-.68-.89-1.86-1.38-3.04-1.25-.81.09-1.64.48-2.13 1.15-.49.66-.6 1.61-.14 2.24.51.71 1.57.87 2.46.62.9-.26 1.67-.85 2.4-1.44.2-.16.41-.33.54-.56.13-.22.15-.51 0-.7" class="cls-1"/><path d="M406.12 258.85c.31-.02.31 2.02 2.06 3.46 1.74 1.45 3.92 1.21 3.93 1.5.03.13-.48.4-1.4.42-.9.03-2.21-.25-3.28-1.14-1.07-.88-1.53-2.07-1.6-2.9-.08-.85.15-1.36.29-1.35ZM405.63 240.33c-.18.51-2.06.27-4.26.54-2.21.23-3.98.88-4.28.42-.13-.22.18-.7.9-1.2.71-.5 1.85-.97 3.17-1.12 1.32-.15 2.53.06 3.34.38s1.22.72 1.14.97ZM422.55 237.8c-.33.43-1.62-.01-3.18-.03-1.56-.07-2.87.29-3.18-.15-.13-.22.07-.64.65-1.05.57-.4 1.51-.73 2.58-.7 1.07.03 2 .42 2.54.85.55.44.73.88.59 1.08Z" class="cls-13"/><path d="M376.66 271.42c3.74.75 7.82-.4 10.62-3 2.8-2.6 4.24-6.58 3.76-10.37-.42-3.34-2.23-6.74-1.07-9.91 1.53-4.18 7.4-5.47 8.95-9.64.9-2.43.09-5.26 1.12-7.64.96-2.24 3.32-3.52 5.61-4.35s4.74-1.4 6.67-2.89c1.92-1.49 3.12-4.31 1.88-6.41a129.065 129.065 0 0 0-29.74 7.23c-2.22.83-4.55 1.83-5.87 3.8-1.39 2.09-1.32 4.79-1.21 7.29l1.71 36.66" class="cls-13"/><path d="M377.52 276.09s-.08-.04-.22-.14c-.17-.13-.36-.28-.61-.46-.53-.41-1.3-1.03-2.25-1.87-.95-.85-2.09-1.92-3.2-3.37-1.1-1.43-2.17-3.3-2.54-5.6-.41-2.24-.11-5.05 1.76-7.16.92-1.04 2.1-1.81 3.17-2.7 1.09-.87 2-1.99 2.47-3.37 1.01-2.77.56-5.99.95-9.27.43-3.27 1.6-6.64 3.86-9.38 1.13-1.35 2.48-2.53 4.04-3.3 1.54-.81 3.22-1.15 4.76-1.61 1.56-.43 2.99-1.08 4.18-2.06 1.2-.96 2.18-2.14 3.03-3.35 1.71-2.43 2.97-5.02 4.6-7.17.81-1.08 1.69-2.06 2.68-2.85.99-.79 2.08-1.37 3.18-1.73 2.2-.75 4.52-.5 6.04.6 1.51 1.15 2.06 2.8 2.15 4.07.06 1.31-.38 2.29-.82 2.8-.22.27-.41.44-.55.53-.14.1-.21.15-.22.14 0 0 .05-.07.18-.19.13-.11.31-.29.5-.56.39-.52.78-1.47.68-2.71-.11-1.21-.69-2.78-2.11-3.82-1.44-1-3.63-1.22-5.72-.47-1.05.36-2.09.93-3.02 1.69-.94.76-1.79 1.72-2.57 2.78-1.58 2.12-2.82 4.7-4.55 7.19-.87 1.24-1.87 2.46-3.13 3.47-1.24 1.04-2.79 1.74-4.37 2.18-1.58.47-3.2.8-4.66 1.57-1.47.73-2.76 1.85-3.85 3.15-2.17 2.62-3.31 5.9-3.74 9.07-.4 3.17.06 6.43-1.01 9.39-.5 1.47-1.53 2.7-2.66 3.59-1.12.91-2.27 1.66-3.14 2.63-1.75 1.94-2.07 4.6-1.71 6.76.33 2.22 1.34 4.04 2.4 5.47 1.06 1.44 2.17 2.53 3.09 3.4.93.86 1.67 1.5 2.17 1.95.5.44.76.68.75.69Z" class="cls-12"/><path d="m461.87 370.79 20.05-38.17-9.84-10.56-25.3 24.33 7.1 19.55 7.99 4.85z" class="cls-14"/><path d="M415.8 297.5a33.521 33.521 0 0 1 18.96 17.28l25.86 55 22.27 9.03-19.61 5.65-17.47-12.81-30.02-74.16Z" class="cls-14"/><path d="m463.28 384.47-9.38 7.23-46.81-48.15-26.76-48.33 3.09-8.99 20.69 8.62 5.97 7.53 3.09-10.47 1.33 1.88 2.16 5.85s20.31 16.9 24.7 30.3c3.66 11.18 2.51 34.29 4.74 40.57l17.18 13.96Z" class="cls-3"/><path d="M375.33 294.59c-.31.94-20.01 8.85-20.95 15.75-.94 6.9 14.15 60.22 14.15 60.22l23.93 21.14h61.44l-19.49-36.49a92.713 92.713 0 0 0-15.77-21.44c-5.77-5.84-12.75-13.08-16.34-17.39-3.89-4.68-20.4-26.52-20.4-26.52l-6.56 4.73Z" class="cls-14"/><path d="M387.65 296.78c.04-.07 1.37.53 3.48 1.56s5.02 2.5 8.21 4.15c1.27.66 2.49 1.3 3.62 1.89l-.42.27c-.16-2.62.09-4.88.39-6.44.3-1.57.62-2.45.67-2.44.07.02-.12.93-.32 2.49s-.37 3.78-.17 6.34l.04.51-.46-.23c-1.14-.58-2.36-1.21-3.63-1.86-3.19-1.65-6.06-3.18-8.13-4.31-2.07-1.13-3.32-1.87-3.29-1.94ZM416.09 299.66c.07.05-.39.76-1.19 1.87l-.25.34-.13-.42c-.39-1.32-.89-3.15-1.41-5.19-.04-.16-.08-.32-.12-.46l.56.07c-1.85 3.49-2.98 6.41-3.14 6.35-.14-.04.75-3.09 2.6-6.63l.36-.69.19.76c.04.15.08.3.12.46.52 2.04.96 3.89 1.24 5.23l-.37-.08c.88-1.04 1.46-1.66 1.52-1.61ZM435.02 345.41s-.38-.54-.98-1.56c-.64-1.12-1.49-2.59-2.51-4.35-2.11-3.68-5.03-8.75-8.35-14.31-3.31-5.56-6.39-10.54-8.62-14.15-1.07-1.74-1.96-3.17-2.64-4.27-.62-1.01-.94-1.58-.91-1.61s.43.51 1.1 1.48c.68.97 1.64 2.4 2.8 4.17 2.33 3.55 5.46 8.5 8.78 14.07 3.31 5.56 6.19 10.67 8.2 14.41 1.01 1.87 1.81 3.39 2.34 4.45.54 1.06.81 1.65.78 1.67Z" class="cls-13"/><path d="M425.55 382.58c3.57.61 7.23 1.21 10.79.53 3.56-.68 7.04-2.92 8.16-6.36.35-1.08.5-2.31 1.33-3.08 1.37-1.27 3.56-.49 5.43-.66 2.08-.19 3.86-1.68 4.95-3.46 1.08-1.79 1.58-3.85 2.07-5.89.24-1 .48-2.03.37-3.06s-.66-2.06-1.6-2.49c-1.41-.63-2.99.29-4.25 1.19-10.13 7.3-19.36 15.75-28.57 24.18" class="cls-18"/><path d="m584.52 456.05 17.86 22.37s28.73-10.64 32.44-6.82l-42.13 36.18-29.25-33.71 21.09-18.01Z" class="cls-12"/><g class="cls-19"><path d="M587.78 487.78c-.62.92-.4 2.32.5 2.98.9.66 2.32.45 2.96-.47.64-.91.42-2.6-.54-3.16s-2.63-.21-3.03.83" class="cls-2"/></g><g class="cls-19"><path d="m592.68 507.77-2.82-3.51 41.45-33.37s2.58-.79 3.5.71l-42.13 36.18Z" class="cls-2"/></g><path d="M602.87 477.62c.17.21-.78 1.19-1.22 2.72-.48 1.52-.24 2.86-.5 2.94-.22.12-.97-1.37-.4-3.21.55-1.85 2.01-2.67 2.13-2.44ZM608.86 475.65c.22.16-.37 1.27-.32 2.74 0 1.47.64 2.56.42 2.73-.17.2-1.34-.88-1.37-2.71-.04-1.83 1.09-2.95 1.27-2.76ZM615.91 478.79c-.15.2-1.32-.58-1.76-2.16-.45-1.58.14-2.85.37-2.76.26.07.16 1.21.54 2.5.35 1.3 1.04 2.22.85 2.41ZM598.24 472.97c.07.26-1.11.79-2.21 1.87-1.12 1.06-1.69 2.22-1.95 2.14-.25-.05-.02-1.57 1.29-2.82 1.3-1.26 2.82-1.43 2.86-1.19Z" class="cls-13"/><path d="m588.05 460.48 3.18 3.99-20.86 17.59-3.02-3.46 20.7-18.12z" class="cls-18"/><path d="M594.55 468.53c.08.08-.63.91-2.12 1.8-.74.44-1.69.89-2.79 1.22-.55.16-1.14.3-1.76.4-.3.04-.64.11-1.06.05-.41-.02-1.01-.45-1.03-1.01-.06-.51.2-.98.5-1.24.3-.28.61-.43.89-.57.57-.29 1.14-.51 1.7-.68 1.12-.33 2.17-.42 3.04-.39 1.75.07 2.75.55 2.71.65-.03.15-1.06-.09-2.7.02-.82.05-1.78.21-2.79.56-.51.17-1.02.39-1.53.67-.55.27-.93.59-.87.89.02.11.04.15.25.2.2.04.48 0 .78-.04.58-.08 1.14-.19 1.66-.32 1.05-.27 1.96-.62 2.71-.97 1.5-.7 2.34-1.33 2.43-1.21Z" class="cls-13"/><path d="M594.54 469.05c-.05.09-1.09-.29-2.31-1.56-.6-.63-1.22-1.49-1.7-2.56a9.09 9.09 0 0 1-.56-1.74c-.11-.63-.29-1.44.43-2.22.4-.37 1.03-.35 1.39-.17.38.17.62.39.88.59.5.43.91.92 1.22 1.42.64 1.01.91 2.07.97 2.95.11 1.8-.53 2.78-.61 2.73-.16-.04.22-1.06-.05-2.65-.13-.78-.44-1.7-1.04-2.56-.29-.43-.66-.83-1.09-1.19-.45-.39-.93-.61-1.06-.42-.21.18-.28.82-.14 1.32.11.56.27 1.1.46 1.59.39.99.9 1.82 1.4 2.46 1 1.29 1.89 1.87 1.8 2Z" class="cls-13"/><path d="m564.99 519.98-1.08 28.6s28.71 10.71 29.02 16.01l-55.53-.11-.14-44.63 27.73.13Z" class="cls-12"/><g class="cls-19"><path d="M546.74 546.14c-1.08.29-1.82 1.5-1.57 2.58.25 1.09 1.47 1.85 2.55 1.58 1.08-.27 2.02-1.69 1.65-2.75s-1.85-1.88-2.83-1.35" class="cls-2"/></g><g class="cls-19"><path d="m537.4 564.48.16-4.5 53.18 1.79s2.47 1.08 2.19 2.82l-55.53-.11Z" class="cls-2"/></g><path d="M564.81 548.3c0 .27-1.37.39-2.7 1.26-1.36.83-2.05 2.01-2.3 1.9-.25-.05.16-1.67 1.79-2.7 1.63-1.04 3.26-.71 3.21-.46ZM570.63 550.72c.06.26-1.11.72-2.04 1.87-.96 1.12-1.19 2.36-1.46 2.35-.25.04-.44-1.55.74-2.95 1.16-1.41 2.76-1.52 2.76-1.26ZM573.92 557.7c-.25.06-.62-1.3.08-2.78.69-1.49 1.97-2.07 2.08-1.85.15.22-.67 1.02-1.23 2.25-.58 1.21-.66 2.36-.93 2.38ZM564.33 541.75c-.11.25-1.36-.13-2.89-.03-1.53.07-2.73.58-2.87.35-.16-.2 1.01-1.2 2.82-1.29 1.81-.11 3.08.76 2.94.97Z" class="cls-13"/><path d="m564.77 525.64-.19 5.1-27.29-.3-.03-4.6 27.51-.2z" class="cls-18"/><path d="M564.44 535.98c0 .11-1.07.28-2.78-.02-.85-.15-1.86-.43-2.91-.9-.53-.24-1.06-.52-1.6-.85-.26-.17-.56-.33-.84-.66-.3-.28-.47-1-.12-1.44.29-.43.79-.61 1.19-.62.41-.01.74.07 1.04.15.62.15 1.2.36 1.73.6 1.06.48 1.92 1.1 2.56 1.69 1.29 1.2 1.72 2.21 1.63 2.26-.12.09-.75-.76-2.06-1.75-.65-.49-1.49-1-2.48-1.4-.5-.2-1.03-.37-1.6-.5-.59-.16-1.09-.16-1.24.1-.05.1-.06.14.06.31.13.16.36.31.62.48.49.32.98.6 1.47.84.97.48 1.89.81 2.69 1.04 1.59.45 2.64.52 2.63.67Z" class="cls-13"/><path d="M564.09 536.37c-.1.04-.63-.93-.73-2.69a9.061 9.061 0 0 1 1.1-4.73c.33-.55.73-1.28 1.78-1.4.55-.02 1 .41 1.16.78.18.38.22.7.28 1.02.1.65.09 1.28 0 1.87a6.455 6.455 0 0 1-1.19 2.87c-1.09 1.44-2.22 1.76-2.24 1.67-.09-.14.86-.66 1.69-2.04.41-.68.78-1.58.88-2.61.06-.51.05-1.06-.05-1.61-.09-.59-.31-1.07-.53-1.01-.28 0-.75.44-.97.91-.29.5-.51 1.01-.69 1.51-.35 1-.5 1.96-.54 2.77-.08 1.63.21 2.65.06 2.69Z" class="cls-13"/><path d="m474.03 352.79 29.7-68.59s-17.23 21.57-26.24 21.37c0 0-9.95 21.97-16.37 39.37l-9.78 25.23 22.69-17.38Z" class="cls-2"/><path d="M474.03 352.79s-.12.12-.37.32c-.28.22-.66.53-1.15.91-1.04.81-2.54 1.99-4.46 3.49-3.93 3.04-9.58 7.41-16.58 12.82l-.58.45.27-.69c3.18-8.28 6.96-18.15 11.18-29.15 4.22-11.01 9.28-22.99 14.88-35.51l.08-.18h.2c1.66 0 3.42-.66 5.04-1.55 4.39-2.45 8.08-5.88 11.53-9.26 3.43-3.42 6.58-6.94 9.44-10.44l1.33-1.62-.83 1.92c-8.64 19.84-16.1 36.97-21.41 49.18-2.66 6.05-4.78 10.88-6.25 14.22-.73 1.63-1.29 2.9-1.69 3.79-.19.41-.34.73-.45.97-.1.22-.16.32-.16.32s.04-.12.12-.35c.1-.25.23-.58.41-1 .38-.9.92-2.19 1.61-3.84 1.43-3.36 3.51-8.22 6.1-14.31 5.26-12.21 12.64-29.35 21.18-49.2l.49.29c-2.87 3.53-6.02 7.06-9.47 10.5-3.47 3.4-7.17 6.86-11.67 9.37-1.66.9-3.49 1.62-5.34 1.62l.28-.18c-5.6 12.5-10.68 24.47-14.92 35.45-4.2 11.01-8.09 20.84-11.3 29.1l-.32-.24c7.03-5.34 12.71-9.65 16.66-12.64 1.96-1.47 3.48-2.62 4.54-3.41.51-.37.9-.66 1.19-.88.27-.2.42-.29.42-.29ZM356.21 506.29l8.91 58.3h8.84l-4.35-58.08-13.4-.22zM513.07 506.51v58.08h9.33l3.48-58.3-12.81.22z" class="cls-13"/><path d="M449.15 340.49s3.77-8.65 5.77-9.84c2.01-1.2 14.29-6.8 14.29-6.8l-1.26 2.76 12.23-7.3s.96 2.53-.94 5.14c-1.91 2.61-1.27 2.37-1.27 2.37s2.07 1.24 1.03 3.09c-1.04 1.84-2.79 4.1-2.79 4.1s1.9 2.32 1.13 4.5c0 0 .72 1.9.27 4.53-.45 2.63-5.21 7.64-5.21 7.64L448.64 362l-9.58-16.26 10.09-5.24Z" class="cls-4"/><path d="M396.75 326.68 411 357.11l31.61-13.73s13.12 7.65 11.3 16.02l-28.48 23.39a25.49 25.49 0 0 1-19.29 5.61c-7.44-.91-14.1-5.05-18.21-11.31l-20.61-31.37-11.52-18.84c-3.69-6.03-3.69-13.79.48-19.5 1.14-1.56 2.5-2.86 4.07-3.82 5.14-3.13 20.44-4.49 36.4 23.12Z" class="cls-14"/><path d="M454.49 359.43s.1-.07.31-.19c.24-.13.55-.29.92-.49.86-.44 2.06-1.04 3.56-1.81 3.15-1.56 7.6-3.78 13.02-6.47l-.07.05c1.39-1.52 2.83-3.21 4.05-5.15.61-.99 1.12-1.99 1.16-3.2.1-1.17 0-2.43-.37-3.57l-.03-.1.03-.09c.47-1.33-.14-2.98-1.09-4.22l-.14-.18.13-.18c.82-1.09 1.64-2.23 2.39-3.44.39-.62.73-1.19.59-1.8-.11-.6-.6-1.16-1.15-1.52l.26.02c-.1.05-.34.04-.46-.16-.07-.15-.05-.22-.04-.29.02-.11.05-.19.08-.26.06-.14.13-.27.2-.4.14-.25.29-.48.44-.71.3-.46.66-.92.94-1.36.57-.9.91-1.97.89-3.06 0-.49-.08-1.01-.22-1.44l.43.15c-4.26 2.54-8.37 4.98-12.24 7.29l-.8.47.39-.84c.43-.93.85-1.85 1.27-2.75l.37.37c-5.24 2.41-10.1 4.57-14.17 6.68-.89.57-1.49 1.58-2.06 2.44-.56.9-1.06 1.79-1.51 2.64-.91 1.71-1.66 3.3-2.29 4.69l-.02.05-.05.02c-2.21 1.11-3.95 1.99-5.18 2.61-.56.27-1.01.49-1.36.66-.31.14-.47.21-.48.2 0-.01.14-.11.44-.27.34-.19.77-.43 1.32-.73 1.22-.65 2.93-1.57 5.11-2.74l-.07.08c.61-1.41 1.34-3.01 2.23-4.74.44-.87.93-1.77 1.49-2.69.28-.46.58-.92.92-1.37.33-.45.74-.91 1.27-1.24 4.11-2.18 8.93-4.35 14.17-6.79l.69-.32-.32.69-1.26 2.76-.41-.37c3.87-2.31 7.97-4.77 12.22-7.31l.32-.19.11.34c.19.56.25 1.09.26 1.64.02 1.21-.35 2.4-.98 3.39-.32.51-.65.91-.95 1.38-.15.22-.29.45-.42.68-.06.11-.12.22-.17.33-.02.05-.04.1-.04.12h-.1c-.08.01-.08 0-.12.03-.01 0-.01.01 0 0v-.03c.04.17-.06-.23-.05-.18h-.02l.26.03c.67.45 1.25 1.07 1.42 1.92.08.42.02.85-.13 1.23-.17.39-.36.67-.55.99-.77 1.23-1.59 2.38-2.43 3.49v-.36c.53.71.93 1.46 1.17 2.28.24.81.27 1.7 0 2.49v-.19c.41 1.28.49 2.56.39 3.81-.05.6-.15 1.26-.41 1.83-.24.57-.53 1.1-.85 1.6-1.28 1.99-2.73 3.67-4.15 5.2l-.03.03-.04.02c-5.46 2.62-9.95 4.77-13.11 6.29-1.53.72-2.74 1.29-3.62 1.7-.39.17-.7.32-.95.43-.22.09-.33.14-.34.13Z" class="cls-1"/><path d="M468.77 326.11c.09.14-2.13 1.67-4.96 3.42s-5.19 3.05-5.28 2.91c-.09-.14 2.13-1.67 4.96-3.42s5.19-3.05 5.28-2.9ZM478.29 325.82c.11.12-1.87 2.27-4.44 4.79-2.56 2.52-4.74 4.48-4.86 4.36-.12-.12 1.87-2.26 4.44-4.79 2.57-2.53 4.74-4.48 4.86-4.36ZM477.01 333.14c.13.11-.81 1.41-2.08 2.91-1.28 1.5-2.41 2.62-2.54 2.52-.13-.11.81-1.41 2.08-2.91 1.28-1.5 2.41-2.62 2.54-2.52ZM477.45 338.08c.13.11-.4.91-1.07 1.87-.67.96-1.24 1.73-1.39 1.64-.14-.08.21-1 .9-1.99.69-.99 1.44-1.64 1.56-1.53Z" class="cls-1"/><path d="M420.57 385.8s.04-.05.14-.14c.12-.1.27-.22.45-.38.43-.35 1.03-.83 1.79-1.45 1.61-1.27 3.91-3.1 6.83-5.41 5.93-4.65 14.34-11.24 24.37-19.11l-.1.2c0-1.55-.27-3.14-.9-4.66-.66-1.5-1.55-2.94-2.62-4.28-2.19-2.65-4.97-5.01-8.08-6.95l.26.02c-5.23 2.28-10.73 4.67-16.36 7.12-5.23 2.27-10.32 4.48-15.24 6.61l-.25.11-.13-.25c-4.2-8.25-8.06-16.02-11.99-22.76-1.95-3.38-3.88-6.52-5.7-9.43-1.82-2.91-3.49-5.63-5.19-7.96-3.32-4.74-7.05-7.64-9.85-9.13-.68-.4-1.32-.71-1.87-.98-.54-.28-1.01-.49-1.4-.65-.36-.16-.64-.28-.86-.38-.19-.09-.29-.14-.29-.15 0 0 1.69.48 4.52 1.97 1.41.75 3.09 1.8 4.82 3.3 1.75 1.48 3.51 3.45 5.23 5.79 1.73 2.34 3.42 5.04 5.26 7.94 1.84 2.9 3.8 6.04 5.76 9.42 3.97 6.74 7.87 14.51 12.07 22.75l-.38-.14c4.91-2.14 10.01-4.35 15.24-6.63 5.64-2.45 11.14-4.83 16.37-7.1l.14-.06.12.08c3.19 1.99 5.98 4.38 8.22 7.1 1.09 1.38 2.02 2.86 2.69 4.43.64 1.58.93 3.25.92 4.89v.12l-.1.08c-10.09 7.79-18.54 14.33-24.5 18.93-2.96 2.26-5.29 4.05-6.92 5.3-.78.59-1.4 1.05-1.84 1.38-.2.14-.35.25-.48.35-.11.08-.17.11-.17.11Z" class="cls-13"/><path d="M409.08 366.67c-.17-.07.71-2.24 1.21-5.06.52-2.81.46-5.15.64-5.16.15-.02.48 2.37-.05 5.27-.52 2.9-1.66 5.02-1.8 4.95Z" class="cls-13"/><path d="m538.28 391.7 52.12 69.27-24.38 20.94-25.1-32.82-2.64-57.39z" class="cls-14"/><path d="M427.91 395.01s83.86-25.55 91.54-25.23c7.68.32 22.26 28.06 22.26 28.06l-23.54-.85-29.77 45.45-48.14-2.24-12.35-45.19Z" class="cls-14"/><path d="M496.46 374.82c.05.16-8.57 2.86-19.25 6.04-10.68 3.17-19.38 5.62-19.42 5.46-.05-.16 8.57-2.86 19.25-6.04 10.68-3.17 19.37-5.62 19.42-5.46ZM515.95 396.54h23.55c11.75 0 22.22 7.41 26.12 18.5A42.833 42.833 0 0 1 568 431.3l-1.83 95.78h-31.7l-.57-30.61-4.01-58.19-27.44 1.16-15.55-.97 29.05-41.93Z" class="cls-14"/><path d="M516.65 396.07s-.12.73-.44 2.02c-.29 1.3-.87 3.15-1.67 5.4-.86 2.23-1.93 4.88-3.5 7.63a62.425 62.425 0 0 1-5.73 8.53c-4.59 5.68-9.41 10.21-12.81 13.53-1.66 1.6-3.04 2.92-4.07 3.91-.97.92-1.51 1.41-1.54 1.38-.03-.03.46-.58 1.38-1.55.91-.97 2.26-2.35 3.93-4.04 3.32-3.41 8.08-7.97 12.63-13.61 4.55-5.65 7.59-11.52 9.3-15.94.84-2.22 1.48-4.04 1.84-5.31.39-1.27.63-1.97.67-1.96Z" class="cls-13"/><path d="M545.45 397.19c-.01.09-1.64-.06-4.28-.21a133.5 133.5 0 0 0-10.31-.17c-4.03.08-7.67.32-10.31.5-2.64.19-4.27.31-4.28.22 0-.04.4-.12 1.13-.24.73-.12 1.8-.26 3.11-.4 2.63-.29 6.29-.6 10.33-.67 4.05-.09 7.71.09 10.35.35 1.32.12 2.38.26 3.12.38.73.12 1.13.21 1.13.25ZM534.33 509.59s-.05-.27-.09-.8c-.03-.58-.08-1.35-.13-2.29-.09-2.06-.22-4.92-.38-8.43-.31-7.12-.74-16.95-1.42-27.8-.69-10.85-1.49-20.66-2.07-27.76-.28-3.5-.52-6.35-.68-8.41-.07-.95-.12-1.71-.16-2.29-.03-.52-.04-.8-.02-.8s.07.27.14.79c.07.58.16 1.34.27 2.28.21 2.05.51 4.9.87 8.39.69 7.09 1.57 16.9 2.25 27.76.68 10.85 1.04 20.7 1.25 27.82.08 3.51.14 6.37.19 8.44 0 .95.01 1.71.02 2.3 0 .52-.01.8-.04.8ZM568.04 427.61c.17 0 .05 21.95-.25 49.01-.3 27.07-.69 49.01-.85 49.01-.17 0-.05-21.94.25-49.02.3-27.07.69-49.01.85-49.01Z" class="cls-13"/><path d="M542.18 424.04c.06.18-3.25 1.01-6.76 3.19-3.54 2.15-5.77 4.71-5.91 4.58-.06-.05.43-.75 1.39-1.74.95-.99 2.41-2.24 4.21-3.35 1.8-1.1 3.58-1.83 4.89-2.23 1.32-.4 2.17-.52 2.18-.45Z" class="cls-13"/><path d="M486.9 438.48c6.39 1.21 13.41-.8 18.89-4.31s9.53-9.18 11.09-15.5c.7-2.84.91-5.78 1.61-8.62s1.97-5.68 4.29-7.46c2.68-2.05 9.29-3.36 11.25-6.11 0-.41-7.83.52-10.45.67-2.86.16-7.65.91-7.56.56 0 0-1.91 6.9-2.76 8.4-5.72 10.08-18.25 24.9-26.35 32.37" class="cls-18"/><path d="M354.63 326.1s-12.49.5-16.31 5.73c-6.74 9.23-2.95 17.24-3.33 19.97s21.22 154.49 21.22 154.49h8.89l160.78 1.48 7.72-18.76-3.71-50.73-42.99.19s-17.6-50.53-32.99-53.91c-10.42-2.29-34.9-1.48-49.62-.72-7.35.38-14.34-3.18-18.34-9.36l-31.31-48.39Z" class="cls-12"/><path d="M497.12 500.33s-.88.11-2.59.2c-1.71.05-4.23.13-7.49.16-6.52.09-15.98.12-27.77.11-23.57-.02-56.44-.2-93.59-.53h-.24l-.05-.24c-.67-3.18-1.35-6.45-2.05-9.77-.67-3.33-1.34-6.71-2.03-10.12-8.07-41.15-12.8-78.85-15.35-106.19-1.28-13.67-2.04-24.76-2.53-32.43-.21-3.82-.37-6.79-.49-8.83-.05-1-.08-1.76-.11-2.3-.02-.52-.02-.78-.02-.78s.04.26.08.78c.04.54.09 1.3.17 2.29.14 2.04.34 5 .6 8.82.56 7.66 1.39 18.74 2.72 32.4 2.65 27.32 7.45 64.99 15.51 106.12.68 3.41 1.36 6.79 2.02 10.11.7 3.32 1.38 6.58 2.05 9.76l-.29-.24c37.14.29 70 .54 93.59.73 11.77.03 21.23.06 27.77.07 3.24-.02 5.76-.04 7.49-.05.85 0 1.5-.06 1.93-.07.44-.02.66-.01.66-.01Z" class="cls-13"/><path d="M495.43 507.49s0-.25.07-.72c.08-.53.18-1.21.3-2.05.14-.89.32-1.97.46-3.24.14-1.27.37-2.7.48-4.31.15-1.6.31-3.35.38-5.24.13-1.88.13-3.9.16-6.02-.02-4.24-.25-8.9-.8-13.77-.58-4.86-1.44-9.45-2.38-13.59-.97-4.13-2.02-7.81-3.02-10.86-.46-1.54-.98-2.9-1.39-4.11-.41-1.21-.8-2.24-1.12-3.08-.29-.79-.53-1.44-.72-1.94-.16-.45-.23-.69-.21-.69.02 0 .13.21.32.65.21.49.49 1.12.82 1.9.36.83.78 1.84 1.22 3.05.44 1.2.99 2.55 1.48 4.09 1.05 3.05 2.15 6.73 3.15 10.87.97 4.15 1.85 8.76 2.44 13.65.56 4.89.77 9.58.76 13.84-.04 2.13-.07 4.16-.22 6.05-.09 1.89-.28 3.65-.45 5.25-.14 1.61-.4 3.04-.57 4.31-.17 1.27-.38 2.35-.56 3.23-.17.83-.31 1.5-.42 2.03-.1.46-.16.7-.19.7ZM377.61 398.77s.21-.2.65-.55c.49-.37 1.14-.87 1.94-1.48.43-.32.9-.68 1.41-1.06.54-.35 1.15-.7 1.79-1.09 1.3-.76 2.73-1.73 4.47-2.5.86-.42 1.75-.85 2.68-1.3.93-.46 1.96-.8 2.99-1.22 1.04-.39 2.1-.87 3.23-1.23s2.3-.73 3.5-1.1c4.82-1.39 10.21-2.64 15.96-3.32 5.74-.73 11.26-1.07 16.28-.99 2.51-.04 4.89.16 7.11.24 2.22.21 4.29.35 6.17.62 3.76.49 6.77 1.11 8.83 1.62.98.27 1.76.49 2.35.65.54.16.81.25.81.27s-.3-.03-.84-.15c-.6-.14-1.39-.32-2.37-.54a96.84 96.84 0 0 0-8.83-1.43c-1.87-.24-3.94-.36-6.15-.54-2.22-.06-4.59-.24-7.09-.18-4.99-.05-10.48.31-16.2 1.03-5.72.68-11.09 1.9-15.88 3.26-1.19.37-2.35.73-3.48 1.07-1.13.34-2.18.81-3.22 1.19-1.03.41-2.05.74-2.98 1.18-.93.44-1.82.86-2.68 1.26-1.74.74-3.17 1.67-4.48 2.4-.65.38-1.26.71-1.81 1.05-.52.37-1 .7-1.44 1.01-.83.57-1.5 1.04-2 1.39-.46.31-.71.47-.72.45Z" class="cls-13"/></g><g id="Plants"><path d="M247.87 497.8h77.61v10.66h-77.61z" class="cls-13"/><path d="M325.62 508.6h-77.88v-10.93h77.88v10.93Zm-77.61-.27h77.35v-10.4h-77.35v10.4Z" class="cls-13"/><path d="m255.07 504.91 11.17 55.12h41.34l10.8-51.57-63.31-3.55z" class="cls-13"/><path d="m255.07 554.82 5.96 8.19h50.24l7.11-8.19h-63.31z" class="cls-12"/><path d="M283.77 506.52c-.15 0-.35-25.53-.44-57.02-.09-31.5-.04-57.03.12-57.03.15 0 .35 25.53.44 57.03.09 31.49.04 57.02-.12 57.02ZM301.06 442.63s-.06.21-.21.59l-.69 1.65c-.15.36-.32.76-.51 1.19-.16.45-.33.93-.52 1.45-.19.52-.39 1.08-.6 1.66-.21.59-.37 1.23-.57 1.9-.85 2.65-1.52 5.89-2.17 9.5-.56 3.63-.99 7.65-1.2 11.88-.38 8.48.1 16.17.61 21.71.25 2.77.5 5.01.69 6.56.08.73.14 1.32.2 1.78.04.41.05.62.03.63-.02 0-.07-.21-.14-.61-.08-.46-.18-1.05-.3-1.77-.25-1.54-.56-3.77-.86-6.55-.61-5.54-1.16-13.25-.78-21.77.21-4.26.66-8.3 1.25-11.94.68-3.63 1.4-6.89 2.3-9.53.22-.66.39-1.31.62-1.9.23-.58.44-1.14.64-1.66.2-.51.39-.99.56-1.44.19-.43.39-.82.55-1.18.32-.66.58-1.19.79-1.61.19-.37.29-.55.31-.55Z" class="cls-13"/><path d="M299.07 421.98s-.07.3-.25.84c-.2.59-.47 1.38-.81 2.37-.18.52-.38 1.09-.59 1.71-.19.64-.4 1.33-.62 2.06-.45 1.48-.98 3.16-1.45 5.05-.25.94-.51 1.93-.78 2.95-.23 1.04-.48 2.11-.73 3.23-.54 2.22-.93 4.64-1.43 7.16-.86 5.07-1.61 10.68-2.13 16.59-.49 5.92-.7 11.57-.78 16.72-.02 5.14.05 9.78.26 13.67.07 1.95.19 3.7.29 5.24.09 1.54.19 2.87.28 3.96.08 1.05.14 1.88.19 2.5.04.57.05.87.03.88-.02 0-.07-.3-.14-.86-.07-.62-.17-1.45-.29-2.49-.13-1.08-.26-2.41-.38-3.95-.13-1.54-.28-3.3-.38-5.25-.26-3.89-.37-8.53-.38-13.69.05-5.16.25-10.83.74-16.76.52-5.93 1.29-11.55 2.18-16.63.52-2.53.92-4.95 1.49-7.17.26-1.12.52-2.19.76-3.23.28-1.03.56-2.01.82-2.95.49-1.89 1.05-3.56 1.53-5.04.24-.73.46-1.42.67-2.05.23-.62.45-1.18.64-1.7.38-.98.68-1.76.91-2.34.21-.53.33-.81.35-.8ZM278.86 511.04s-.02-.1-.04-.3c-.02-.23-.04-.52-.07-.88-.05-.81-.13-1.94-.23-3.38-.19-2.98-.45-7.22-.78-12.44-.67-10.5-1.65-25-3.41-40.96-.9-7.98-1.95-15.55-3.04-22.42-.58-3.43-1.1-6.69-1.7-9.72-.55-3.04-1.13-5.86-1.68-8.44-.51-2.58-1.08-4.89-1.54-6.93-.45-2.04-.88-3.79-1.25-5.21-.34-1.4-.61-2.5-.81-3.29-.08-.35-.14-.64-.2-.86-.04-.19-.06-.3-.05-.3 0 0 .04.09.1.28.06.22.15.5.25.85.22.79.52 1.88.91 3.27.4 1.42.86 3.16 1.34 5.19.49 2.03 1.08 4.34 1.62 6.92.57 2.57 1.18 5.39 1.74 8.43.62 3.03 1.16 6.3 1.75 9.73a461.36 461.36 0 0 1 3.08 22.44c1.77 15.97 2.68 30.49 3.26 40.99.29 5.25.48 9.51.6 12.45l.12 3.39c0 .36.01.65.02.88 0 .2 0 .3-.01.3Z" class="cls-13"/><path d="M283.13 404.74c-.34-3.62-3.99-6.35-7.63-6.38-3.63-.04-7.02 2.14-9.24 5.02-2.22 2.87-3.45 6.38-4.45 9.88-2.45 8.52-3.78 17.48-2.74 26.28 1.05 8.8 4.62 17.47 10.94 23.69 1.03 1.01 2.36 2.02 3.77 1.72.77-.16 1.4-.7 1.99-1.23 12.41-11.21 19.58-28 19.09-44.72-.1-3.35-.54-6.83-2.39-9.62-1.85-2.79-6.18-5.75-9.33-4.63M256.01 375.77c-1.71 3.09-3.41 6.18-5.12 9.27-.12.22-.28.46-.52.48-.27.02-.47-.23-.62-.46l-13.53-20.76 3.12-1.77 16.67 13.24Z" class="cls-6"/><g class="cls-17"><path d="M256.01 375.77c-1.71 3.09-3.41 6.18-5.12 9.27-.12.22-.28.46-.52.48-.27.02-.47-.23-.62-.46l-13.53-20.76 3.12-1.77 16.67 13.24Z" class="cls-14"/></g><path d="M283.45 392.47c-15.38-9.08-30.76-18.15-46.14-27.23-.47-.28-.98-.61-1.12-1.13-.18-.68.33-1.34.82-1.85 6.35-6.55 15.57-10.34 24.66-9.69 9.09.65 17.84 5.91 22.29 13.87 4.45 7.96 4.6 18.48-.51 26.03" class="cls-6"/><path d="M243.95 356.55s.21-.04.6-.08c.4-.02.99-.09 1.74-.08 1.52-.04 3.72.06 6.4.51 2.68.44 5.83 1.3 9.12 2.77 3.29 1.46 6.69 3.57 9.79 6.35 3.07 2.81 5.52 5.98 7.3 9.11 1.79 3.13 2.96 6.17 3.66 8.8.71 2.62 1.03 4.81 1.14 6.32.08.75.05.95.07 1.35 0 .4-.34 1.01-.36 1.01-.05 0 .25-.83.07-2.33s-.55-3.65-1.31-6.24c-1.46-5.14-4.85-12.07-10.96-17.6-6.11-5.53-13.35-8.21-18.6-9.15-2.65-.49-4.83-.65-6.33-.68-1.51-.03-2.34 0-2.35-.06Z" class="cls-13"/><path d="M277.2 373.68c.03.07-.86.48-2.33 1.06-1.47.58-3.52 1.32-5.82 2.05-2.3.73-4.4 1.31-5.94 1.69-1.54.38-2.5.55-2.52.48-.02-.08.91-.39 2.41-.86 1.7-.53 3.68-1.15 5.88-1.84 2.18-.71 4.16-1.34 5.86-1.89 1.5-.48 2.44-.77 2.46-.69ZM269.93 354.16c.15-.01.48 2.29.55 5.15.07 2.86-.14 5.18-.28 5.17-.16 0-.19-2.31-.27-5.15-.07-2.84-.15-5.15 0-5.16ZM236.9 364.72c-.02-.07 1.26-.53 3.35-1.18 2.1-.65 5.02-1.46 8.27-2.25 3.26-.78 6.23-1.39 8.39-1.76 2.16-.38 3.51-.55 3.52-.48.01.08-1.31.38-3.44.86-2.14.48-5.09 1.14-8.34 1.92s-6.17 1.54-8.29 2.09c-2.12.55-3.44.88-3.46.8Z" class="cls-13"/><path d="M263.98 396.9c-3.97-3.01-8.17-3.6-13.14-3.4-4.98.2-9.82 1.71-14.38 3.71-7.78 3.41-15.09 8.43-19.74 15.54-4.65 7.11-6.27 16.52-2.79 24.27.35.77.8 1.58 1.58 1.91.82.35 1.76.08 2.6-.2 8.85-2.89 17.76-5.8 25.9-10.32 8.14-4.52 15.54-10.81 19.91-19.03 1.05-1.97 1.92-4.09 2.1-6.31.17-2.23-.44-4.59-2.03-6.17" class="cls-6"/><path d="M264.06 395.96s-.21.11-.64.26c-.48.16-1.09.38-1.85.64-.41.14-.86.29-1.34.45-.49.18-1.01.39-1.57.61-1.12.45-2.42.91-3.79 1.57-.69.32-1.42.65-2.17.99-.75.35-1.5.77-2.3 1.18-1.6.79-3.23 1.79-4.96 2.82a86.306 86.306 0 0 0-10.48 7.77c-3.47 3.08-6.48 6.31-9.04 9.41-1.23 1.58-2.44 3.07-3.42 4.56-.5.74-1.02 1.43-1.46 2.13-.44.7-.86 1.38-1.26 2.03-.83 1.27-1.45 2.5-2.04 3.56-.29.53-.57 1.02-.81 1.48-.22.46-.43.89-.62 1.27-.36.72-.64 1.3-.87 1.76-.2.4-.32.61-.34.6-.02 0 .06-.23.24-.64.2-.47.46-1.06.78-1.8.18-.4.37-.83.57-1.3.22-.47.49-.96.77-1.5.57-1.07 1.16-2.32 1.98-3.61.39-.66.81-1.34 1.23-2.06.43-.71.95-1.41 1.45-2.16.98-1.51 2.17-3.01 3.4-4.62 2.55-3.13 5.59-6.4 9.08-9.5 3.52-3.07 7.15-5.65 10.58-7.79 1.75-1.02 3.39-2.01 5.01-2.79.8-.4 1.57-.82 2.33-1.16.76-.33 1.5-.65 2.2-.96 1.39-.64 2.7-1.07 3.84-1.5.57-.2 1.1-.41 1.59-.57.49-.15.95-.28 1.36-.4.78-.22 1.4-.4 1.89-.54.43-.12.66-.17.67-.15ZM233.05 412.75c.04.15-4.28 1.54-9.65 3.11-5.38 1.57-9.77 2.73-9.81 2.58s4.28-1.54 9.65-3.11c5.37-1.57 9.77-2.73 9.81-2.58Z" class="cls-13"/><path d="M232.66 434.05c-.07 0-.16-1.15-.21-3.01a137 137 0 0 1 .02-7.27c.08-2.84.23-5.4.39-7.26.15-1.85.31-3 .38-2.99.08 0 .06 1.16.01 3.01-.06 2.04-.14 4.51-.22 7.25-.07 2.74-.13 5.21-.18 7.25-.05 1.86-.1 3.01-.18 3.01ZM250.91 424.76c-.15.01-.64-5.21-1.08-11.67-.45-6.45-.68-11.69-.53-11.71.15-.01.64 5.21 1.08 11.67.45 6.45.68 11.69.53 11.7Z" class="cls-13"/><path d="M228.19 400.88c0-.08 1.19-.11 3.09-.09 1.91.01 4.54.07 7.45.17s5.54.21 7.45.33c1.9.11 3.08.22 3.08.3 0 .08-1.18.11-3.09.09-1.91-.01-4.54-.07-7.46-.17-2.91-.1-5.54-.21-7.45-.33-1.9-.11-3.08-.22-3.08-.3ZM271.99 464.44s-.04-.21-.07-.62c-.02-.46-.05-1.05-.08-1.78-.07-1.54-.09-3.78-.03-6.53.05-2.76.24-6.04.57-9.68.36-3.63.88-7.62 1.62-11.77.76-4.15 1.68-8.06 2.63-11.6.97-3.52 1.95-6.67 2.88-9.28.92-2.61 1.72-4.7 2.33-6.12.29-.67.52-1.21.7-1.64.17-.37.26-.56.28-.56.02 0-.04.21-.18.6-.16.44-.36.99-.6 1.67-.55 1.44-1.29 3.55-2.16 6.17-.88 2.62-1.82 5.76-2.76 9.28-.91 3.53-1.81 7.43-2.57 11.56-.74 4.14-1.28 8.1-1.66 11.72-.36 3.62-.59 6.89-.69 9.64-.11 2.75-.15 4.98-.15 6.52 0 .72-.02 1.31-.02 1.77-.01.41-.03.62-.05.62Z" class="cls-13"/><path d="M274.43 434.23c.05.05-.65.83-1.84 2.02s-2.89 2.79-4.82 4.48c-1.94 1.7-3.74 3.17-5.08 4.2-1.34 1.03-2.2 1.62-2.24 1.56-.05-.06.73-.76 2-1.86 1.42-1.23 3.1-2.69 4.96-4.31 1.84-1.63 3.51-3.11 4.92-4.35 1.26-1.11 2.05-1.79 2.11-1.74ZM289.03 445.99c-.07.04-.8-1.01-1.96-2.72-1.26-1.84-2.83-4.13-4.56-6.65-1.77-2.5-3.37-4.77-4.66-6.59-1.2-1.68-1.93-2.73-1.86-2.78.06-.05.9.92 2.18 2.55 1.28 1.63 2.99 3.92 4.8 6.51 1.8 2.59 3.35 4.99 4.43 6.76 1.08 1.76 1.7 2.89 1.63 2.93ZM281.38 408.99c.08.13-4.77 3.39-10.84 7.29s-11.05 6.96-11.14 6.83c-.08-.13 4.77-3.39 10.84-7.3 6.07-3.9 11.05-6.96 11.13-6.83ZM295.06 423.76c-.11.11-3.39-2.93-7.34-6.78-3.95-3.86-7.06-7.07-6.95-7.18.11-.11 3.39 2.93 7.34 6.78 3.95 3.85 7.06 7.07 6.95 7.18Z" class="cls-13"/><path d="m298.5 423.46 4.17-.34c2.96-.24 5.83-1.12 8.41-2.57 1.28-.72 2.56-1.42 3.92-1.97 5.15-2.07 10.89-1.7 16.44-1.98 9.05-.45 18-2.74 26.15-6.69.47-.23.89-.58 1.14-1.03.86-1.56-.73-2.95-2.1-3.79-7.02-4.32-14.16-8.7-22.12-10.85-7.96-2.15-16.99-1.78-23.78 2.89-7.97 5.49-10.87 16.75-12.22 26.33" class="cls-6"/><path d="M358.82 408.36s-.25-.1-.71-.33c-.5-.26-1.16-.61-1.97-1.03-1.71-.9-4.18-2.23-7.29-3.72-3.12-1.48-6.89-3.15-11.29-4.35-4.38-1.22-9.42-1.85-14.63-1.19-5.18.68-9.96 2.7-13.34 5.73-3.4 3.02-5.48 6.66-6.94 9.75-1.46 3.12-2.37 5.78-3.02 7.59-.31.87-.55 1.57-.74 2.1-.17.48-.27.73-.29.72s.05-.27.19-.76c.16-.54.38-1.25.64-2.13.59-1.84 1.44-4.52 2.87-7.69 1.43-3.14 3.5-6.86 6.96-9.97 3.44-3.12 8.33-5.2 13.6-5.89 5.29-.68 10.42-.01 14.84 1.24 4.43 1.24 8.22 2.96 11.32 4.49 3.1 1.54 5.54 2.93 7.22 3.89.8.47 1.44.84 1.92 1.13.44.26.66.41.65.43Z" class="cls-13"/><path d="M348.82 413.74c-.09.13-5.53-3.4-12.17-7.87-6.64-4.47-11.94-8.2-11.86-8.33.09-.13 5.53 3.4 12.17 7.87 6.63 4.47 11.94 8.2 11.86 8.33ZM343 397.25c.03.12-1.74.53-3.97.71-2.23.19-4.05.07-4.04-.05 0-.13 1.8-.22 4-.41 2.2-.18 3.99-.38 4.01-.25ZM319.16 394.15c.13.06-.67 1.31-1.79 2.79s-2.13 2.63-2.26 2.57c-.13-.06.67-1.31 1.79-2.79s2.13-2.63 2.26-2.57ZM324.04 416.95c-.04.06-1.05-.47-2.62-1.42-1.57-.96-3.7-2.35-5.97-4-2.27-1.65-4.28-3.21-5.72-4.35-1.44-1.14-2.31-1.88-2.26-1.94.05-.06 1 .56 2.5 1.63 1.63 1.19 3.61 2.63 5.81 4.22 2.26 1.64 4.35 3.09 5.86 4.12 1.51 1.04 2.45 1.68 2.41 1.75Z" class="cls-13"/><path d="M304.64 441.16c-3.97-1.05-8.71 2.81-9.53 6.84-.82 4.03.69 8.14 2.46 11.85 3.91 8.21 9.31 15.83 16.43 21.49s16.02 9.29 25.12 9.25c-1.68-7.8.44-15.95-.49-23.87-.82-6.92-4.04-13.53-8.99-18.43s-11.59-8.06-18.51-8.81c-2.54-.27-5.47-.67-6.48 1.67" class="cls-6"/><path d="M339.12 490.59s-.2-.07-.57-.26c-.36-.2-.88-.51-1.49-1-1.25-.95-2.68-2.77-3.92-5.25-.63-1.23-1.34-2.57-2.03-4.04-.67-1.48-1.39-3.06-2.14-4.72-.76-1.66-1.59-3.37-2.63-5.05-1.03-1.68-2.26-3.32-3.61-4.92-2.72-3.19-5.64-5.96-8.17-8.6-2.54-2.63-4.68-5.16-6.23-7.47-1.56-2.3-2.51-4.36-3.04-5.81-.26-.73-.44-1.31-.53-1.7-.1-.4-.14-.6-.13-.61.05-.01.28.81.86 2.24.59 1.42 1.58 3.42 3.16 5.67 1.57 2.26 3.72 4.74 6.27 7.34 2.54 2.61 5.48 5.37 8.22 8.6 1.37 1.61 2.61 3.28 3.65 4.99 1.05 1.71 1.88 3.45 2.63 5.12.73 1.67 1.43 3.25 2.09 4.74.67 1.47 1.36 2.82 1.96 4.06 1.2 2.48 2.53 4.28 3.71 5.26 1.16 1 1.95 1.37 1.91 1.43Z" class="cls-13"/><path d="M318.57 484.11c-.07-.01.05-1.04.36-2.67.31-1.64.82-3.88 1.51-6.33.69-2.45 1.43-4.63 2.02-6.19.59-1.56 1.02-2.5 1.08-2.47.07.03-.22 1.01-.71 2.6s-1.17 3.77-1.85 6.21c-.69 2.44-1.25 4.65-1.66 6.26-.41 1.61-.67 2.6-.75 2.59ZM338.36 464.96c-.02.08-1.09-.2-2.8-.64-1.71-.45-4.08-1.06-6.71-1.65-2.63-.59-5.03-1.05-6.77-1.38-1.74-.33-2.81-.54-2.8-.62 0-.07 1.11 0 2.87.23s4.18.63 6.83 1.23c2.64.6 5 1.27 6.69 1.82 1.69.55 2.71.95 2.69 1.02ZM303.83 470.53c-.07-.01.08-1.2.43-3.09.35-1.9.91-4.5 1.65-7.35.74-2.85 1.53-5.4 2.16-7.22.62-1.83 1.07-2.93 1.14-2.91.07.02-.24 1.18-.76 3.03-.53 1.85-1.25 4.41-1.99 7.24-.74 2.84-1.35 5.42-1.8 7.29-.45 1.87-.73 3.03-.81 3.01ZM329.25 448.28c-.02.15-4.98-.25-11.08-.9s-11.03-1.29-11.02-1.45c.02-.15 4.97.25 11.08.9 6.1.65 11.03 1.29 11.02 1.45Z" class="cls-13"/><path d="M325.62 508.42c0 .15-17.43.28-38.93.28s-38.94-.12-38.94-.28 17.43-.28 38.94-.28 38.93.12 38.93.28ZM313.49 530.85c0 .15-11.75.28-26.23.28s-26.24-.12-26.24-.28 11.74-.28 26.24-.28 26.23.12 26.23.28ZM313.03 534.06c0 .15-11.54.28-25.78.28s-25.78-.12-25.78-.28 11.54-.28 25.78-.28 25.78.12 25.78.28ZM313.95 528.21c0 .15-12.15.28-27.13.28s-27.14-.12-27.14-.28 12.15-.28 27.14-.28 27.13.12 27.13.28ZM851.26 218.98h133.56v6.87H851.26z" class="cls-12"/><path d="M960.22 149.41s-.02-.08-.09-.21c-.09-.16-.19-.36-.32-.6-.29-.52-.75-1.27-1.41-2.2-1.32-1.82-3.45-4.45-6.96-6.58-1.75-1.04-3.85-1.94-6.25-2.29-2.38-.34-5.04-.16-7.59.8-2.54.93-5.01 2.71-6.49 5.32-1.49 2.6-1.97 5.66-2.85 8.59-.44 1.46-1 2.87-1.81 4.09-.81 1.22-1.92 2.19-3.08 3.04-1.16.86-2.38 1.63-3.48 2.53-1.1.9-2.05 1.94-2.82 3.06-1.55 2.24-2.43 4.72-2.89 7.07-.47 2.36-.52 4.61-.39 6.64.29 4.07 1.14 7.26 1.7 9.45.29 1.1.53 1.94.7 2.51.17.57.27.87.28.86.02 0-.05-.31-.18-.89-.15-.62-.35-1.47-.6-2.53-.49-2.2-1.29-5.4-1.53-9.42-.11-2.01-.04-4.22.44-6.53.48-2.3 1.35-4.71 2.86-6.88.75-1.08 1.67-2.08 2.74-2.95 1.07-.87 2.28-1.63 3.46-2.5 1.18-.86 2.35-1.87 3.21-3.16.85-1.29 1.43-2.75 1.88-4.24.88-2.97 1.36-5.99 2.79-8.48 1.41-2.49 3.76-4.2 6.21-5.12 2.46-.94 5.04-1.13 7.36-.82 2.32.32 4.39 1.18 6.12 2.18 3.47 2.05 5.62 4.61 6.99 6.38.68.9 1.16 1.63 1.48 2.13.32.5.49.76.51.75Z" class="cls-10"/><path d="M922 160.13c.81-.75 1.2-.23 2.28-.03 1.08.2 2.06.77 2.92 1.46 3.74 2.98 5.4 8.34 3.99 12.92-3.44.19-6.92-1.64-8.72-4.58-1.8-2.94-1.84-6.87-.1-9.85M955.06 145.08c.4-1.02.98-.72 2.04-1.01s2.19-.19 3.26.06c4.66 1.08 8.46 5.21 9.16 9.94-3.03 1.65-6.95 1.5-9.84-.38s-4.62-5.41-4.33-8.85M914.71 180.5c2.19-2.53 5.58-3.98 8.92-3.82 3.34.16 6.57 1.93 8.51 4.67-2.44 2.24-5.73 3.53-9.04 3.56-3.31.03-6.62-1.49-9.11-3.68M917.43 165.28c-3.36.1-6.73-1.41-8.9-3.97s-3.1-6.14-2.45-9.44c3.52-.81 7.43.45 9.82 3.16 2.39 2.71 3.15 6.75 1.9 10.14M929.07 147.4c-3.14 1.21-6.81.91-9.72-.79-2.9-1.7-4.96-4.76-5.44-8.09 3.05-1.93 7.16-2.04 10.31-.28 3.15 1.76 5.21 5.32 5.16 8.93M932.97 141.56c3.14-1.21 6.82-.91 9.72.79s4.96 4.76 5.44 8.09c-3.05 1.93-7.16 2.04-10.31.28-3.15-1.76-5.21-5.32-5.16-8.93M937.62 138.42c-3.18-1.08-5.82-3.66-6.97-6.82-1.14-3.16-.77-6.83.99-9.7 3.58.47 6.81 3.01 8.11 6.38 1.3 3.37.6 7.42-1.74 10.17M949.54 138.99c-1.15-3.16-.77-6.83.98-9.7 1.76-2.87 4.86-4.87 8.19-5.28 1.87 3.09 1.9 7.2.08 10.31-1.82 3.11-5.42 5.1-9.03 4.99" class="cls-10"/><path d="m901.49 219.55-6.35-39.86 48.66.6-4.8 38.74" class="cls-13"/><path d="M922.49 172.41c2.61 1.63 5.68 1.89 8.08.68 2.4-1.21 4.07-3.86 4.42-6.98-2.68-1.28-5.61-1.43-8.06-.41s-4.4 3.2-5.36 6M944.73 181c2.61 1.63 5.68 1.89 8.08.68 2.4-1.21 4.07-3.86 4.42-6.98-2.68-1.28-5.61-1.43-8.06-.41s-4.4 3.2-5.36 6M932.25 161.83c1.28 2.8 3.7 4.7 6.37 5.01 2.67.31 5.52-.98 7.53-3.4-1.53-2.55-3.9-4.28-6.51-4.78s-5.43.25-7.78 2.06M940.37 171.76c-3.08-.04-5.84 1.32-7.26 3.59-1.43 2.27-1.49 5.41-.17 8.26 2.96-.29 5.54-1.68 7.11-3.82 1.57-2.14 2.11-5.01 1.48-7.91M948.2 187.45c-1.34 2.77-1.27 5.85.19 8.1s4.28 3.63 7.42 3.64c.99-2.8.82-5.73-.46-8.06s-3.58-3.48-6.47-4.13" class="cls-15"/><path d="M961.14 189.29c-.05.06-.53-.7-1.92-1.23-.69-.26-1.59-.43-2.64-.46-1.05-.04-2.25.1-3.59.21-1.33.09-2.87.18-4.42-.38-1.57-.54-2.86-1.91-3.65-3.53-.83-1.62-1.21-3.5-1.57-5.38-.38-1.88-.78-3.85-1.87-5.52-1.08-1.69-2.65-2.94-4.11-4.18-1.48-1.23-2.92-2.48-3.94-4-2.02-3.05-2.36-6.5-1.96-9.16.4-2.7 1.47-4.7 2.39-5.89.48-.59.86-1.03 1.17-1.29.29-.27.45-.4.46-.39.01.01-.12.17-.38.47-.28.28-.63.73-1.08 1.33-.85 1.21-1.84 3.19-2.19 5.82-.35 2.59.04 5.93 1.99 8.83.98 1.44 2.39 2.65 3.87 3.87 1.47 1.23 3.08 2.51 4.23 4.29 1.16 1.78 1.56 3.83 1.94 5.71.36 1.89.72 3.71 1.5 5.27.75 1.55 1.93 2.82 3.37 3.33 1.43.54 2.92.49 4.24.42 1.33-.08 2.55-.21 3.63-.13 1.07.06 2 .26 2.7.57.71.29 1.18.66 1.46.95.15.13.24.26.3.34.06.08.09.12.08.13Z" style="fill:#e8505b"/><path d="M961.14 189.29c-.05.06-.53-.7-1.92-1.23-.69-.26-1.59-.43-2.64-.46-1.05-.04-2.25.1-3.59.21-1.33.09-2.87.18-4.42-.38-1.57-.54-2.86-1.91-3.65-3.53-.83-1.62-1.21-3.5-1.57-5.38-.38-1.88-.78-3.85-1.87-5.52-1.08-1.69-2.65-2.94-4.11-4.18-1.48-1.23-2.92-2.48-3.94-4-2.02-3.05-2.36-6.5-1.96-9.16.4-2.7 1.47-4.7 2.39-5.89.48-.59.86-1.03 1.17-1.29.29-.27.45-.4.46-.39.01.01-.12.17-.38.47-.28.28-.63.73-1.08 1.33-.85 1.21-1.84 3.19-2.19 5.82-.35 2.59.04 5.93 1.99 8.83.98 1.44 2.39 2.65 3.87 3.87 1.47 1.23 3.08 2.51 4.23 4.29 1.16 1.78 1.56 3.83 1.94 5.71.36 1.89.72 3.71 1.5 5.27.75 1.55 1.93 2.82 3.37 3.33 1.43.54 2.92.49 4.24.42 1.33-.08 2.55-.21 3.63-.13 1.07.06 2 .26 2.7.57.71.29 1.18.66 1.46.95.15.13.24.26.3.34.06.08.09.12.08.13Z" class="cls-15"/><path d="M868.25 193.38c.2-4.06-1.76-8.17-5.05-10.57-3.29-2.39-7.8-3-11.61-1.56 2.81 6.46 9.23 11.19 16.22 11.97M865.04 195.07c-2.38 2.61-2.23 6.82-.52 9.91 1.7 3.1 4.63 5.3 7.57 7.27.99-3.33.85-6.98-.38-10.23a16.112 16.112 0 0 0-6.5-7.9M876.56 182.82c.38 3.8 2.36 7.42 5.37 9.77 3.01 2.36 6.99 3.42 10.77 2.88-.92-3.82-2.46-7.68-5.41-10.27-2.95-2.6-7.61-3.56-10.88-1.38M876.49 178.92c-.6-3.48-4.03-6.01-7.55-6.33s-6.99 1.17-9.81 3.3c2.11 2.42 5.16 3.99 8.36 4.31 3.19.32 6.5-.63 9.04-2.59M858.36 208.53c-3.34 2.85-4.18 7.93-2.79 12.1 1.39 4.17 4.64 7.49 8.3 9.93 1.4-4.13 2.28-8.56 1.54-12.86-.74-4.3-3.33-8.46-7.33-10.21M875.95 169.15c1.76-2.59 4.77-4.3 7.9-4.48 3.13-.18 6.31 1.16 8.37 3.53-1.36 3.04-4.55 5.17-7.88 5.26-3.33.09-6.63-1.88-8.14-4.85M880.04 159.11c-3.6 1.09-7.65.57-10.86-1.39-3.21-1.97-5.51-5.34-6.16-9.05 2.68-.24 5.39-.36 8.04.12 2.65.47 5.24 1.58 7.12 3.51s2.41 4.18 1.86 6.81M887.76 156.51c-2.48-2.03-3.99-5.2-4-8.4-.01-3.21 1.47-6.39 3.94-8.43 2.4 2.92 4.06 6.46 4.77 10.17.27 1.39.4 2.86-.04 4.21-.43 1.35-1.54 2.56-2.95 2.76" class="cls-14"/><path d="M901.11 180.98v-.27c.01-.21.03-.47.05-.8.05-.7.11-1.74.13-3.08 0-2.64 0-6.63-1.81-11.06-.93-2.17-2.33-4.44-4.45-6.26-2.07-1.83-4.97-3.06-8.09-2.98-1.55.03-3.14.38-4.56 1.14-1.44.73-2.64 1.94-3.53 3.37-1.76 2.91-2.2 6.56-2.05 10.17.13 3.63.65 7.21.24 10.7-.2 1.73-.62 3.42-1.33 4.96-.7 1.54-1.71 2.92-2.99 3.92-1.28 1.02-2.77 1.6-4.17 2.13-1.41.53-2.76 1.04-3.93 1.78-2.37 1.46-4.09 3.52-5.16 5.62a13.683 13.683 0 0 0-1.49 6.15c-.01 1.89.35 3.5.78 4.75.88 2.52 1.92 3.66 1.84 3.7 0 0-.07-.07-.18-.21-.11-.15-.28-.35-.47-.65-.39-.59-.92-1.5-1.39-2.77-.46-1.26-.87-2.89-.88-4.82-.02-1.92.36-4.14 1.45-6.32 1.08-2.17 2.83-4.3 5.26-5.83 2.41-1.6 5.58-2 8.03-3.92 2.46-1.93 3.74-5.21 4.11-8.56.39-3.39-.13-6.95-.26-10.62-.15-3.65.28-7.41 2.13-10.45.93-1.5 2.21-2.77 3.73-3.54 1.51-.8 3.18-1.16 4.79-1.18 3.25-.07 6.27 1.23 8.39 3.13 2.17 1.88 3.58 4.22 4.5 6.44.92 2.24 1.33 4.41 1.53 6.31.19 1.9.19 3.55.14 4.9-.06 1.34-.15 2.38-.23 3.08-.04.33-.07.59-.1.8-.03.18-.04.27-.05.27Z" class="cls-14"/><path d="M971.96 172.28c-.09-.02.67-1.2.73-3.57 0-1.17-.2-2.63-.95-4.11-.74-1.48-2.09-2.93-3.97-3.83-.94-.45-2-.76-3.13-.84-1.13-.09-2.31.08-3.5.41-2.38.63-4.74 1.98-7.56 2.54-1.39.27-2.92.35-4.39-.11-1.48-.44-2.74-1.53-3.57-2.85-1.7-2.64-2.18-5.94-4.23-8.37-1.01-1.21-2.39-2.04-3.84-2.51-1.46-.49-3.01-.6-4.49-.46-3.01.25-5.63 1.85-7.47 3.89-1.86 2.05-3.01 4.5-3.71 6.86-.7 2.37-.92 4.69-.83 6.8.18 4.22.88 7.6 1.26 9.94.2 1.14.35 2.03.47 2.69.04.28.08.51.1.7.02.16.03.24.02.24 0 0-.03-.08-.07-.23-.04-.19-.09-.41-.16-.69-.14-.65-.33-1.55-.56-2.68-.44-2.33-1.21-5.7-1.43-9.96-.12-2.13.08-4.51.78-6.93.69-2.42 1.86-4.93 3.77-7.06.96-1.06 2.1-2.01 3.41-2.73 1.32-.73 2.81-1.19 4.36-1.34 1.55-.15 3.17-.05 4.71.47 1.53.5 3 1.38 4.08 2.67 2.17 2.6 2.64 5.93 4.26 8.43.79 1.25 1.93 2.24 3.29 2.65 1.35.43 2.79.37 4.14.11 2.72-.52 5.09-1.86 7.54-2.49 1.22-.33 2.46-.5 3.64-.39 1.18.1 2.29.43 3.26.91 1.95.96 3.33 2.49 4.07 4.04.75 1.55.93 3.06.89 4.25-.04 1.2-.31 2.11-.53 2.7-.22.59-.41.87-.41.87Z" class="cls-15"/><path d="M943.5 154.62c2.61 1.63 6.28 1.78 8.68.57 2.4-1.21 4.07-3.86 4.42-6.98-2.68-1.28-5.61-1.43-8.06-.41s-4.4 3.2-5.36 6M952.72 162.99c-.03 3.08 1.75 6.29 4.03 7.71 2.28 1.42 5.41 1.47 8.26.14-.3-2.96-1.7-5.54-3.84-7.1-2.15-1.56-5.02-2.09-7.91-1.46M968.73 161.14c2.77 1.34 6.43 1.1 8.69-.36 2.25-1.46 3.64-4.27 3.65-7.41-2.8-.99-5.73-.83-8.06.45s-4.03 3.65-4.69 6.54M930.06 149.08c-2.33-2.01-3.89-5.54-3.45-8.19s2.48-5.03 5.36-6.28c2.02 2.18 3.03 4.94 2.78 7.58s-1.76 5.15-4.15 6.9M867.57 137.62s.02-.08.09-.21c.09-.16.19-.36.32-.6.29-.52.75-1.27 1.41-2.2 1.32-1.82 3.45-4.45 6.96-6.58 1.75-1.04 3.85-1.94 6.25-2.29 2.38-.34 5.04-.16 7.59.8 2.54.93 5.01 2.71 6.49 5.32 1.49 2.6 1.97 5.66 2.85 8.59.44 1.46 1 2.87 1.81 4.09.81 1.22 1.92 2.19 3.08 3.04 1.16.86 2.38 1.63 3.48 2.53 1.1.9 2.05 1.94 2.82 3.06 1.55 2.24 2.43 4.72 2.89 7.07.47 2.36.52 4.61.39 6.64-.29 4.07-1.14 7.26-1.7 9.45-.29 1.1-.53 1.94-.7 2.51-.17.57-.27.87-.28.86-.02 0 .05-.31.18-.89.15-.62.35-1.47.6-2.53.49-2.2 1.29-5.4 1.53-9.42.11-2.01.04-4.22-.44-6.53-.48-2.3-1.35-4.71-2.86-6.88-.75-1.08-1.67-2.08-2.74-2.95-1.07-.87-2.28-1.63-3.46-2.5-1.18-.86-2.35-1.87-3.21-3.16-.85-1.29-1.43-2.75-1.88-4.24-.88-2.97-1.36-5.99-2.79-8.48-1.41-2.49-3.76-4.2-6.21-5.12-2.46-.94-5.04-1.13-7.36-.82-2.33.32-4.39 1.18-6.12 2.18-3.47 2.05-5.62 4.61-6.99 6.38-.68.9-1.16 1.63-1.48 2.13-.32.5-.49.76-.51.75Z" class="cls-15"/><path d="M905.8 148.34c-.81-.75-1.2-.23-2.28-.03-1.08.2-2.06.77-2.92 1.46-3.74 2.98-5.4 8.34-3.99 12.92 3.44.19 6.92-1.64 8.72-4.58 1.8-2.94 1.84-6.87.1-9.85" class="cls-14"/><path d="M872.73 133.29c-.41-1.02-.98-.72-2.04-1.01-1.06-.29-2.19-.19-3.26.06-4.66 1.08-8.46 5.21-9.16 9.94 3.03 1.65 6.95 1.5 9.84-.38 2.89-1.88 4.62-5.41 4.33-8.85" class="cls-15"/><path d="M913.08 168.71c-2.19-2.53-5.58-3.98-8.92-3.82-3.34.16-6.57 1.93-8.51 4.67 2.44 2.24 5.73 3.53 9.04 3.56 3.31.03 6.62-1.49 9.11-3.68" class="cls-14"/><path d="M910.37 153.5c3.36.1 6.73-1.41 8.9-3.97 2.17-2.57 3.1-6.14 2.45-9.44-3.52-.81-7.43.45-9.82 3.16-2.39 2.71-3.15 6.75-1.9 10.14M898.73 135.62c3.14 1.21 6.81.91 9.72-.79 2.9-1.7 4.96-4.76 5.44-8.09-3.05-1.93-7.16-2.04-10.31-.28-3.15 1.76-5.21 5.32-5.16 8.93M894.83 129.78c-3.14-1.21-6.81-.91-9.72.79-2.9 1.7-4.96 4.76-5.44 8.09 3.05 1.93 7.16 2.04 10.31.28 3.15-1.76 5.21-5.32 5.16-8.93M890.18 126.64c3.18-1.08 5.82-3.66 6.97-6.82s.77-6.83-.99-9.7c-3.58.47-6.81 3.01-8.1 6.38-1.3 3.37-.6 7.42 1.74 10.16M878.26 127.2c1.15-3.16.77-6.83-.98-9.7-1.76-2.87-4.86-4.87-8.19-5.28-1.87 3.09-1.9 7.2-.08 10.31 1.82 3.11 5.42 5.1 9.03 4.99" class="cls-15"/><path d="m894.52 214.93 3.73 4.62h45.79l3.12-4.62h-52.64z" class="cls-13"/><path d="M946.15 214.89c0 .15-11.25.26-25.13.26s-25.13-.12-25.13-.26 11.25-.26 25.13-.26 25.13.12 25.13.26ZM941.01 197.5s-.08.14-.29.38c-.2.24-.5.58-.93.98-.85.81-2.2 1.89-4.09 2.84-1.89.93-4.34 1.72-7.15 1.84-1.4.07-2.88-.05-4.37-.37-1.49-.33-2.98-.85-4.46-1.48-2.95-1.26-5.63-2.69-8.25-3.52-2.6-.86-5.1-1.1-7.12-.69-2.03.38-3.51 1.27-4.37 2.03-.87.76-1.2 1.33-1.25 1.3-.02 0 .06-.15.23-.41s.45-.62.88-1.04c.84-.82 2.34-1.8 4.43-2.24 2.08-.48 4.69-.26 7.35.59 2.68.82 5.39 2.26 8.31 3.5 1.46.62 2.92 1.14 4.37 1.46 1.45.32 2.88.44 4.24.39 2.73-.08 5.13-.82 7.01-1.69 3.76-1.81 5.38-3.97 5.47-3.86Z" class="cls-12"/><path d="M941.46 193.93s-.1.13-.31.35c-.22.22-.54.54-1 .91-.9.75-2.31 1.75-4.24 2.63-1.93.86-4.39 1.6-7.2 1.72-1.4.07-2.88-.03-4.39-.29-1.5-.28-3.02-.74-4.53-1.28-3.02-1.1-5.8-2.36-8.45-3.1-2.64-.76-5.14-.99-7.18-.65-2.05.3-3.59 1.08-4.53 1.73-.95.67-1.37 1.18-1.41 1.14-.01-.01.08-.14.29-.38.21-.23.53-.56 1-.93.93-.72 2.49-1.58 4.59-1.93 2.1-.4 4.68-.2 7.38.55 2.7.73 5.51 1.98 8.5 3.07 1.5.54 2.98.99 4.44 1.27 1.46.27 2.9.37 4.27.32 2.74-.09 5.16-.78 7.07-1.58 3.83-1.67 5.63-3.67 5.7-3.56ZM887.43 224.04h4.01v11.18h-4.01zM944.64 224.04h4.01v11.18h-4.01z" class="cls-12"/><path d="M306.81 81.88c-1.24 0-2.44.19-3.58.51-1.43-3.74-5.04-6.4-9.28-6.4-2.41 0-4.62.86-6.34 2.28-2.16-3.44-5.98-5.74-10.35-5.74-6.75 0-12.23 5.48-12.23 12.23 0 .81.08 1.6.23 2.37-3.26 1.9-5.46 5.43-5.46 9.47 0 6.06 4.91 10.97 10.97 10.97h36.02c7.1 0 12.86-5.76 12.86-12.86s-5.76-12.86-12.86-12.86ZM965.88 103.93c-.69 0-1.35.1-1.97.28a5.49 5.49 0 0 0-5.13-3.53c-1.33 0-2.55.47-3.5 1.26-1.2-1.9-3.31-3.17-5.72-3.17a6.747 6.747 0 0 0-6.62 8.06 6.056 6.056 0 0 0 3.05 11.29h19.89c3.92 0 7.1-3.18 7.1-7.1s-3.18-7.1-7.1-7.1ZM261.23 260.01c.91-.55 1.88-.97 2.88-1.25l.59-2.85 4.82-.08.69 2.83c1.01.25 1.99.63 2.93 1.15l2.44-1.6 3.47 3.35-1.51 2.49c.55.91.97 1.88 1.25 2.88l2.85.59.08 4.82-2.83.69c-.25 1.01-.63 1.99-1.15 2.93l1.6 2.44-3.35 3.47-2.49-1.51c-.91.55-1.88.97-2.88 1.25l-.59 2.85-4.82.08-.69-2.83c-1.01-.25-1.99-.63-2.93-1.15l-2.44 1.6-3.47-3.35 1.51-2.49c-.55-.91-.97-1.88-1.25-2.88l-2.85-.59-.08-4.82 2.83-.69c.25-1.01.63-1.99 1.15-2.93l-1.6-2.44 3.35-3.47 2.49 1.51Zm3.34 5.76a5.181 5.181 0 0 0 .15 8.61c1.73 1.14 4.05 1.1 5.75-.1a5.181 5.181 0 0 0-.15-8.61c-1.73-1.14-4.05-1.1-5.75.1Z" class="cls-8"/><path d="M736.52 194.34c0-14.49-11.74-26.23-26.23-26.23-2.53 0-4.98.38-7.29 1.05-2.92-7.63-10.29-13.05-18.94-13.05-4.91 0-9.42 1.75-12.93 4.65-4.42-7.02-12.21-11.7-21.12-11.7-13.78 0-24.95 11.17-24.95 24.95 0 1.66.17 3.27.48 4.84-6.65 3.88-11.13 11.07-11.13 19.33 0 12.36 10.02 22.39 22.39 22.39h55.36l22.41 13.54-.39-13.83c12.64-1.88 22.34-12.78 22.34-25.94Z" class="cls-2"/><path d="M736.52 194.34c0-14.49-11.74-26.23-26.23-26.23-2.53 0-4.98.38-7.29 1.05-2.92-7.63-10.29-13.05-18.94-13.05-4.91 0-9.42 1.75-12.93 4.65-4.42-7.02-12.21-11.7-21.12-11.7-13.78 0-24.95 11.17-24.95 24.95 0 1.66.17 3.27.48 4.84-6.65 3.88-11.13 11.07-11.13 19.33 0 12.36 10.02 22.39 22.39 22.39h55.36l22.41 13.54-.39-13.83c12.64-1.88 22.34-12.78 22.34-25.94Z" style="fill:none;stroke:#263238;stroke-miterlimit:10"/></g></svg>